<svg width="84" height="77" viewBox="0 0 84 77" fill="none" xmlns="http://www.w3.org/2000/svg">
    <path opacity="0.55"
        d="M83.3101 76.2496C83.2425 76.8992 76.3644 76.7158 67.9473 75.8401C59.5302 74.9643 52.7616 73.7279 52.8293 73.0783C52.8969 72.4287 59.775 72.6121 68.1921 73.4878C76.609 74.3635 83.3777 75.6 83.3101 76.2496Z"
        fill="url(#paint0_radial_0_1)" />
    <path opacity="0.55"
        d="M0.54193 76.2496C0.609556 76.8992 7.48763 76.7158 15.9047 75.8401C24.3218 74.9643 31.0904 73.7279 31.0228 73.0783C30.9551 72.4287 24.0771 72.6121 15.66 73.4878C7.24299 74.3635 0.474304 75.6 0.54193 76.2496Z"
        fill="url(#paint1_radial_0_1)" />
    <path
        d="M50.4655 70.4265L50.584 70.257C50.5831 70.2623 50.5826 70.2678 50.5819 70.2733C50.5456 70.3258 50.5075 70.3771 50.4655 70.4265Z"
        fill="url(#paint2_linear_0_1)" />
    <path
        d="M49.4143 61.2923C50.0392 61.1143 50.7015 61.068 51.3041 60.8255C51.5236 60.737 51.7419 60.615 51.869 60.4155C52.1293 60.0066 51.9132 59.4792 51.8276 59.0019C51.5648 57.5402 52.6095 56.1981 53.5869 55.08C53.8582 54.7696 54.1704 54.4372 54.5808 54.3973C55.1777 54.3393 55.6232 54.9071 55.9706 55.3959C56.3182 55.8844 56.8492 56.4121 57.4228 56.2374C57.9908 56.0645 58.1451 55.3132 58.0174 54.7333C57.8725 54.0762 57.5048 53.4851 57.3556 52.8289C57.2063 52.1726 57.3663 51.353 57.9779 51.0722C58.7047 50.7386 59.4895 51.3501 60.0775 51.8923C60.6654 52.4345 61.5388 52.9749 62.1988 52.523C62.5733 52.2668 62.7084 51.7614 62.6528 51.311C62.5972 50.8605 62.3857 50.4467 62.1902 50.0371C62.0825 49.8117 61.9763 49.5608 62.0398 49.3192C62.0979 49.0974 62.2872 48.9353 62.4816 48.8138C63.584 48.1244 65.183 48.3921 66.0009 49.403C66.8187 50.4139 66.7466 52.0335 65.8422 52.9679C65.4992 53.3221 65.0137 53.7635 65.2386 54.2023C65.5337 54.7786 66.4288 54.3038 67.0546 54.4699C67.5794 54.6094 67.8473 55.2496 67.7329 55.7806C67.6184 56.3115 67.2212 56.7363 66.7931 57.0707C65.9697 57.7139 64.9918 58.1208 64.063 58.5995C63.9147 58.676 63.7602 58.7612 63.6756 58.9048C63.5339 59.1448 63.6389 59.4566 63.7967 59.6862C64.1527 60.204 64.7328 60.5107 65.235 60.8882C65.7375 61.2655 66.2078 61.8103 66.1632 62.4371C66.1153 63.1129 65.4779 63.6075 64.83 63.8056C64.182 64.0037 63.4871 63.9975 62.8327 64.1734C62.6411 64.225 62.4402 64.3019 62.33 64.4671C62.1599 64.7223 62.275 65.0631 62.3941 65.3457C63.0375 66.8696 63.6805 68.3939 64.3238 69.9178C64.4125 70.1278 64.5022 70.3628 64.4249 70.5774C64.3867 70.683 64.3116 70.7706 64.2329 70.8505C63.3961 71.6983 62.0541 71.8589 60.8944 71.5861C59.7348 71.3134 58.7009 70.6763 57.658 70.1003C57.3694 69.9407 57.0701 69.7826 56.743 69.7401C56.2842 69.6804 55.8309 69.8542 55.3989 70.02C54.4591 70.381 53.5107 70.7195 52.5547 71.0352C52.06 71.1985 51.5055 71.3531 51.0339 71.1315C50.7215 70.9847 50.5372 70.5918 50.5822 70.2736C50.6102 70.2332 50.635 70.1913 50.6596 70.1493L50.584 70.257C50.6055 70.1287 50.6648 70.0138 50.77 69.9337C51.1369 69.0949 50.9488 68.0276 50.4964 67.1952C49.9493 66.1885 49.0907 65.39 48.4382 64.4484C48.0307 63.8606 47.6954 63.1201 47.9365 62.4466C48.1554 61.8349 48.7896 61.4705 49.4143 61.2923Z"
        fill="url(#paint3_linear_0_1)" />
    <path
        d="M51.7701 65.1548C52.6813 65.4181 53.4002 66.0349 53.7956 66.8909C54.5375 65.9972 55.3529 65.1906 56.1641 64.363C56.1597 64.3569 56.1548 64.3517 56.1517 64.344C55.7303 63.2765 55.3676 62.1869 55.065 61.0798C55.0319 60.9593 55.2157 60.8925 55.2489 61.0141C55.5457 62.0983 55.9002 63.1659 56.3108 64.2123C56.3932 64.1277 56.4758 64.0436 56.5579 63.9583C57.5035 62.9765 58.2263 61.8277 58.9342 60.6705C58.9305 60.6636 58.926 60.6576 58.9237 60.6487C58.6823 59.6548 58.5559 58.6528 58.5481 57.6296C58.547 57.5047 58.742 57.4889 58.743 57.6151C58.7495 58.5659 58.8609 59.5131 59.0753 60.4395C59.1233 60.3606 59.1714 60.2818 59.2196 60.2032C60.0676 58.8154 60.8921 57.4135 61.6927 55.9978C61.7544 55.8889 61.9315 55.9717 61.8693 56.0815C61.3204 57.0509 60.7569 58.012 60.1864 58.9688L61.0424 59.039C61.3137 59.0612 62.0378 59.2318 62.2269 58.9891C62.3043 58.8895 62.4536 59.0157 62.3766 59.1148C62.1972 59.3454 61.9255 59.3062 61.6605 59.2849C61.132 59.242 60.6035 59.1981 60.0749 59.1548C59.8491 59.5323 59.626 59.9112 59.3963 60.2866C58.9116 61.079 58.433 61.8862 57.8926 62.6459C58.8125 62.8857 59.7323 63.1258 60.6522 63.3659C60.7732 63.3975 60.7383 63.5898 60.6163 63.558L57.7837 62.8188C57.7786 62.8176 57.7752 62.8145 57.7706 62.8125C57.501 63.181 57.2171 63.5382 56.9067 63.8739C56.2301 64.6054 55.5182 65.2904 54.8388 66.0103C56.0755 65.9718 57.2723 66.2251 58.3879 66.7703C58.501 66.8255 58.4176 67.0024 58.3043 66.947C57.1699 66.3927 55.9622 66.1445 54.7013 66.2083C54.6873 66.2092 54.6733 66.2071 54.6601 66.2022C54.3555 66.5312 54.0576 66.8682 53.775 67.2226C52.7977 68.4487 51.9219 69.7505 51.0472 71.0505C50.977 71.1549 50.8279 71.028 50.8974 70.9247C51.7457 69.664 52.5946 68.4015 53.5367 67.2081C53.5768 67.1573 53.6186 67.1084 53.6592 67.0582C53.6583 67.0563 53.6566 67.0554 53.6557 67.0533C53.3 66.2157 52.609 65.6 51.7342 65.3473C51.6145 65.3124 51.6492 65.1198 51.7701 65.1548Z"
        fill="#4256CB" />
    <path
        d="M51.176 71.9087L51.0065 71.6853C51.0129 71.6887 51.0199 71.6916 51.0267 71.6948C51.0793 71.7635 51.1298 71.8339 51.176 71.9087Z"
        fill="url(#paint4_linear_0_1)" />
    <path
        d="M38.9531 69.4706C38.9831 68.5904 39.1984 67.7167 39.1358 66.8383C39.1128 66.5184 39.046 66.1859 38.8414 65.9391C38.4218 65.4333 37.6515 65.493 37.0002 65.4054C35.0049 65.1373 33.7071 63.2317 32.6702 61.5061C32.3824 61.0271 32.0833 60.4861 32.2022 59.94C32.3754 59.1459 33.2932 58.8069 34.068 58.5617C34.8429 58.3162 35.7444 57.8501 35.7572 57.0374C35.7699 56.2325 34.8647 55.7214 34.0634 55.6453C33.1553 55.5592 32.2398 55.7882 31.3311 55.7082C30.4223 55.6282 29.4311 55.0813 29.3229 54.1755C29.1942 53.0991 30.3094 52.3404 31.2531 51.807C32.1969 51.2735 33.2571 50.3711 32.9482 49.3318C32.7731 48.7421 32.1771 48.3579 31.573 48.2425C30.9686 48.1271 30.3467 48.2281 29.7371 48.3102C29.4014 48.3554 29.0336 48.3883 28.7483 48.206C28.4861 48.0389 28.3558 47.7275 28.2796 47.426C27.848 45.7172 28.8577 43.765 30.5018 43.1296C32.146 42.4943 34.2059 43.2601 35.0357 44.8151C35.3505 45.4049 35.7183 46.2145 36.378 46.1067C37.244 45.9652 37.0032 44.6129 37.4775 43.8745C37.8755 43.2551 38.8129 43.1753 39.4505 43.5437C40.0882 43.912 40.4712 44.601 40.7248 45.2922C41.2126 46.6218 41.3315 48.0527 41.5634 49.4501C41.6004 49.6731 41.6462 49.9079 41.7965 50.0768C42.0473 50.3593 42.4932 50.3534 42.8551 50.2452C43.6711 50.0009 44.3078 49.3797 45.0034 48.8886C45.699 48.3968 46.5973 48.0163 47.3877 48.3342C48.2398 48.6768 48.6131 49.7048 48.5996 50.623C48.5859 51.5416 48.2894 52.4356 48.2445 53.3529C48.2314 53.6217 48.2472 53.9128 48.4145 54.1236C48.673 54.4491 49.1607 54.4422 49.5748 54.4058C51.8084 54.2088 54.0423 54.0121 56.2759 53.8152C56.5838 53.7881 56.9243 53.7699 57.1691 53.9588C57.2895 54.0518 57.3714 54.1852 57.4417 54.3201C58.1881 55.7519 57.8378 57.5504 57.004 58.9335C56.1704 60.3164 54.9188 61.3859 53.7424 62.4923C53.4166 62.7985 53.0884 63.1191 52.8974 63.5234C52.63 64.0906 52.6659 64.7478 52.7004 65.3741C52.7758 66.7368 52.8186 68.1011 52.8289 69.4658C52.834 70.1721 52.8033 70.9519 52.3213 71.4683C52.002 71.8104 51.4186 71.8849 51.0266 71.6947C50.986 71.6419 50.9424 71.5924 50.8984 71.5433L51.0063 71.6853C50.8497 71.6044 50.7261 71.48 50.6664 71.311C49.7366 70.4892 48.2812 70.2886 47.0191 70.5267C45.4929 70.8144 44.1058 71.5904 42.6197 72.0414C41.6919 72.323 40.5971 72.4482 39.8283 71.8572C39.1304 71.3205 38.9234 70.3508 38.9531 69.4706Z"
        fill="url(#paint5_linear_0_1)" />
    <path
        d="M44.9157 68.0352C45.634 66.9688 46.7285 66.2975 47.9971 66.1428C47.1522 64.8142 46.4502 63.4269 45.719 62.0366C45.7093 62.0397 45.7007 62.0439 45.6893 62.0448C44.1368 62.145 42.5801 62.1604 41.0259 62.091C40.8567 62.0837 40.8469 61.8188 41.0174 61.8264C42.5418 61.8941 44.0628 61.8796 45.5853 61.7847C45.5104 61.6433 45.4361 61.5018 45.3602 61.3604C44.4862 59.7324 43.304 58.3226 42.1048 56.9284C42.0944 56.9303 42.0848 56.9336 42.0724 56.9327C40.6897 56.8314 39.3442 56.5784 38.0207 56.1634C37.8591 56.1128 37.9196 55.8546 38.083 55.9058C39.3126 56.2924 40.5811 56.5422 41.8655 56.6504L41.6205 56.366C40.1831 54.6945 38.7147 53.05 37.2214 51.4281C37.1064 51.3032 37.287 51.1091 37.4028 51.2348C38.4257 52.3459 39.4318 53.4721 40.4295 54.6057L40.8757 53.5304C41.0172 53.1896 41.538 52.3261 41.3033 51.9813C41.207 51.84 41.4319 51.6997 41.5277 51.8403C41.7506 52.1678 41.5873 52.5021 41.4498 52.8351C41.175 53.4991 40.8987 54.1629 40.6233 54.827C41.0166 55.2752 41.413 55.7204 41.8017 56.1727C42.623 57.1273 43.4657 58.0801 44.2215 59.0932L46.2969 55.8314C46.3879 55.6885 46.6217 55.8133 46.5298 55.9576L44.3993 59.3055C44.3955 59.3117 44.3901 59.3148 44.3857 59.3198C44.7492 59.8208 45.0923 60.3356 45.3963 60.8754C46.0591 62.0524 46.6474 63.2554 47.2941 64.431C47.7581 62.8193 48.5821 61.3802 49.7489 60.1672C49.8671 60.0442 50.0607 60.2252 49.9423 60.3484C48.7558 61.5821 47.9338 63.0372 47.4923 64.6907C47.4876 64.7091 47.4791 64.7263 47.4674 64.7412C47.7654 65.2711 48.0765 65.7954 48.4162 66.3071C49.5924 68.0776 50.9083 69.7485 52.2225 71.4171C52.3281 71.5512 52.1024 71.6907 51.9981 71.5581C50.7237 69.94 49.4472 68.32 48.2986 66.6086C48.2499 66.5358 48.2041 66.4616 48.1561 66.3883C48.1533 66.3888 48.1515 66.3906 48.1484 66.3908C46.9198 66.5018 45.8385 67.1377 45.149 68.1616C45.0544 68.3015 44.8202 68.1769 44.9157 68.0352Z"
        fill="#4256CB" />
    <path
        d="M72.4041 60.415L72.4189 60.4039C72.4677 60.3698 72.5152 60.3339 72.5615 60.2964C72.4954 60.1987 72.4252 60.1039 72.3511 60.0121L72.336 59.9918L72.3339 59.9926C70.543 57.7908 68.3179 59.9308 68.3179 59.9308C70.0942 61.7802 71.8752 60.7843 72.4041 60.415Z"
        fill="url(#paint6_linear_0_1)" />
    <path
        d="M68.7815 64.5975C68.7432 64.4881 68.7001 64.3804 68.6524 64.2747L68.6407 64.245H68.639C67.9589 62.7472 66.7678 62.6204 65.8873 62.7815C66.9179 61.9201 67.7636 60.8943 68.429 59.7214C68.4367 59.723 68.4421 59.7259 68.4484 59.7268C68.4484 59.7268 68.4556 59.7039 68.463 59.6645C68.8401 58.9921 69.1601 58.2717 69.4208 57.5072C69.641 56.8662 69.8158 56.2131 69.9608 55.5543C72.2822 56.9852 73.783 54.9374 73.783 54.9374C73.7048 54.8651 73.6236 54.7961 73.5396 54.7306L73.5151 54.7087L73.5117 54.7086C71.8223 53.3954 70.4714 54.7237 70.0195 55.2745C70.2891 53.9529 70.4316 52.6042 70.5277 51.2549C72.8695 52.728 74.3853 50.6589 74.3853 50.6589C74.3034 50.5828 74.2227 50.5144 74.141 50.4505L74.1162 50.4293L74.1141 50.43C72.3042 49.0225 70.8796 50.652 70.5384 51.1031C70.5904 50.3372 70.6283 49.5723 70.6652 48.8121C70.6697 48.7523 70.6495 48.7094 70.6181 48.6778C70.828 48.2199 71.6473 46.1145 69.4925 45.1909L69.491 45.1874L69.4549 45.174C69.3613 45.1358 69.2656 45.0982 69.161 45.0644C69.161 45.0644 69.1334 45.1222 69.0983 45.2261L69.0946 45.2363C68.9052 45.7846 68.4947 47.5289 70.3706 48.6529C70.3046 48.6855 70.2526 48.7467 70.2476 48.8366C70.2275 49.2374 70.2067 49.6397 70.1851 50.0431C69.9083 49.2682 69.2639 48.4079 67.7798 48.5238L67.7775 48.5217L67.7457 48.5262C67.6395 48.5351 67.5337 48.5484 67.4286 48.566C67.4286 48.566 67.4328 48.6287 67.4481 48.7355L67.4498 48.7485L67.4512 48.7492C67.5378 49.3182 67.9748 51.0302 70.1139 51.1793C70.064 51.8927 70.0005 52.6059 69.9112 53.3153C69.7171 52.8624 69.3294 52.4385 68.6295 52.1382L68.6289 52.1362L68.5933 52.1222C68.4997 52.084 68.4032 52.0478 68.299 52.0133C68.299 52.0133 68.2717 52.0705 68.2367 52.1709L68.2309 52.1851L68.2322 52.1858C68.0437 52.7357 67.6321 54.4852 69.5206 55.6082C69.3083 56.556 69.0278 57.4862 68.6479 58.3854C68.6118 58.475 68.5691 58.5575 68.5311 58.6443C68.4756 57.7376 68.0686 56.5518 66.3861 56.2808L66.3865 56.2801L66.3783 56.2792C66.2558 56.2596 66.1325 56.2452 66.0087 56.2361C66.0087 56.2361 65.5337 58.7308 68.0389 59.6042C67.3722 60.7539 66.5144 61.7282 65.5107 62.5332C65.9461 61.7236 66.2682 60.4299 64.8881 59.3105L64.8882 59.3072L64.8632 59.2894C64.7724 59.2171 64.6791 59.1482 64.5833 59.0827C64.5833 59.0827 64.542 59.1305 64.4801 59.2166L64.4641 59.24C64.1117 59.7474 63.1865 61.4033 64.7362 63.1016C63.7345 63.7711 62.6117 64.2924 61.4024 64.666L61.3963 64.6679C61.9667 63.9576 62.4739 62.7895 61.3877 61.4547L61.3887 61.4527L61.3726 61.4344C61.2977 61.3434 61.2193 61.2554 61.1375 61.1705C61.1375 61.1705 59.1575 62.6845 60.3684 64.9676C58.2956 65.5445 56.1778 66.0089 54.3155 67.0597C54.753 66.0211 55.0873 64.2447 53.0872 63.0462L53.0857 63.0428L53.0428 63.0198C52.9233 62.9495 52.8011 62.8838 52.6766 62.8229C52.6766 62.8229 50.9933 65.4574 53.4746 67.591C53.2795 67.7257 53.0901 67.8685 52.907 68.0192C52.1814 68.6158 51.588 69.3301 51.0849 70.1112C51.2847 68.9421 51.1217 67.3089 49.0599 66.4665L49.0595 66.4638L49.0204 66.4497C48.8802 66.3934 48.7379 66.3427 48.5936 66.2979C48.5936 66.2979 48.5538 66.3847 48.5043 66.5379L48.504 66.5386C48.2532 67.3101 47.7245 69.7534 50.3615 71.2857C50.555 71.2895 50.7418 71.3762 50.8345 71.5513C53.5228 73.0654 55.3622 71.3434 55.898 70.7295L55.9015 70.7262C56.006 70.606 56.0595 70.5291 56.0595 70.5291C55.9474 70.4283 55.831 70.3323 55.7108 70.2414L55.6772 70.2138L55.6735 70.2144C53.8395 68.8389 52.3181 69.6223 51.4278 70.4191C52.0588 69.4354 52.8317 68.5581 53.8122 67.8608C53.8309 67.8744 53.8455 67.8857 53.8641 67.8992C53.8641 67.8992 53.9004 67.8477 53.9573 67.7548C54.0092 67.7195 54.0646 67.687 54.1175 67.6531C56.9346 70.0693 59.3069 67.6074 59.3069 67.6074C59.2162 67.4973 59.1211 67.3908 59.022 67.2881L58.9983 67.2615H58.9949C58.4014 66.6543 57.8048 66.3645 57.242 66.2754C58.3475 65.9309 59.4814 65.6654 60.5997 65.3518C60.6101 65.3679 60.6201 65.3845 60.6309 65.3998C60.6309 65.3998 60.6771 65.3685 60.7526 65.3087C60.7975 65.2957 60.8422 65.2834 60.8869 65.2711C62.1342 67.4961 64.1024 66.9917 64.7081 66.7692L64.7078 66.7699L64.7102 66.7685C64.7719 66.7463 64.8325 66.7216 64.8921 66.6942C64.8531 66.585 64.8101 66.4773 64.763 66.3714L64.7506 66.3429H64.749C64.1209 64.9571 63.0559 64.744 62.2015 64.8466C62.7216 64.6611 63.2322 64.4514 63.7277 64.1989C64.1538 63.9823 64.5662 63.7396 64.9625 63.4723C66.2113 65.3504 68.0225 64.8837 68.5984 64.6718L68.5994 64.6732L68.6001 64.6718C68.7157 64.6296 68.7815 64.5975 68.7815 64.5975Z"
        fill="url(#paint7_linear_0_1)" />
    <path
        d="M29.5955 54.6097L29.5892 54.5974C29.548 54.5233 29.5275 54.4783 29.5275 54.4783C29.604 54.4337 29.6823 54.3922 29.7622 54.3541L29.779 54.3452L29.7801 54.3463C31.7071 53.4369 32.5191 55.6077 32.5191 55.6077C30.7164 56.2835 29.8337 55.0313 29.5955 54.6097Z"
        fill="url(#paint8_linear_0_1)" />
    <path
        d="M30.691 58.617C30.7524 58.5553 30.8165 58.4963 30.8831 58.4403L30.9006 58.4241L30.9018 58.4246C31.8483 57.6313 32.6959 57.9318 33.2398 58.3267C32.8215 57.4091 32.5818 56.4401 32.5119 55.4301C32.5062 55.4287 32.5016 55.429 32.497 55.4275C32.497 55.4275 32.4995 55.4096 32.5074 55.3805C32.4703 54.8029 32.4874 54.2114 32.559 53.6093C32.6179 53.1038 32.7115 52.6049 32.8271 52.1118C30.7911 52.3272 30.4395 50.4539 30.4395 50.4539C30.5159 50.4303 30.5933 50.4099 30.6714 50.3927L30.6952 50.3859L30.6975 50.3869C32.2674 50.0459 32.751 51.3836 32.8782 51.9033C33.1244 50.921 33.4656 49.9616 33.8384 49.0169C31.7748 49.2543 31.4201 47.3616 31.4201 47.3616C31.4968 47.3377 31.5746 47.3171 31.653 47.2998L31.6768 47.2935L31.6781 47.2947C33.3601 46.929 33.7959 48.4945 33.8805 48.9108C34.0938 48.3754 34.3163 47.8452 34.538 47.3185C34.5543 47.2765 34.5819 47.2541 34.6135 47.2428C34.6199 46.8647 34.7485 45.1733 36.5071 45.2473L36.5094 45.2454L36.538 45.2481C36.6138 45.2525 36.6908 45.2582 36.7726 45.2693C36.7726 45.2693 36.7726 45.3174 36.7627 45.3991L36.7619 45.4072C36.7121 45.84 36.4241 47.154 34.7893 47.3064C34.8234 47.3499 34.8388 47.4082 34.813 47.4706C34.6966 47.7485 34.5802 48.0276 34.4637 48.3078C34.9026 47.873 35.6181 47.4996 36.5852 48.0597L36.5875 48.059L36.6076 48.0724C36.6767 48.1128 36.744 48.1561 36.8094 48.2022C36.8094 48.2022 36.7861 48.2433 36.7411 48.3107L36.7358 48.319L36.7346 48.3191C36.4913 48.6762 35.6399 49.6935 34.1433 49.1003C33.9455 49.5996 33.7571 50.103 33.5873 50.6123C33.8656 50.3687 34.2658 50.2075 34.8371 50.2314L34.8381 50.2302L34.8668 50.2322C34.9426 50.2368 35.0196 50.2434 35.1015 50.2539C35.1015 50.2539 35.1014 50.3015 35.0925 50.3809L35.0919 50.3925H35.0909C35.0401 50.826 34.751 52.144 33.1079 52.2914C32.944 53.002 32.8322 53.7228 32.7975 54.4548C32.7929 54.5273 32.795 54.597 32.7926 54.668C33.1244 54.072 33.7848 53.4014 35.0118 53.7639V53.7634L35.0176 53.7654C35.1069 53.7919 35.1951 53.8222 35.2818 53.8561C35.2818 53.8561 34.7939 55.6994 32.8143 55.4776C32.8925 56.4724 33.1572 57.4104 33.5755 58.2811C33.5434 57.5916 33.7451 56.6113 35.0428 56.3013L35.0438 56.299L35.0665 56.295C35.1514 56.2755 35.2369 56.2591 35.323 56.246C35.323 56.246 35.3355 56.2917 35.3494 56.37L35.3527 56.3911C35.4266 56.849 35.5157 58.2703 33.9154 58.9172C34.3763 59.6955 34.9673 60.4128 35.6649 61.0582C35.666 61.0592 35.6673 61.0603 35.6684 61.0615C35.5126 60.3955 35.5483 59.4401 36.7169 58.8888L36.7168 58.8871L36.7337 58.88C36.8109 58.8443 36.8918 58.8097 36.9784 58.7776C36.9784 58.7776 37.8277 60.4452 36.2669 61.598C37.483 62.6613 38.7662 63.663 39.6861 64.9786C39.727 64.1335 40.077 62.8223 41.8201 62.6599L41.8222 62.6582L41.8588 62.6565C41.9582 62.6485 42.0621 62.6425 42.1708 62.642C42.1708 62.642 42.4555 64.9718 40.0831 65.6112C40.1715 65.7657 40.2533 65.9239 40.3284 66.0853C40.626 66.7246 40.796 67.4009 40.8832 68.0929C41.1272 67.2366 41.7676 66.1837 43.4369 66.2825L43.438 66.2807L43.469 66.2839C43.5782 66.2914 43.6908 66.3021 43.8072 66.3197C43.8072 66.3197 43.806 66.3914 43.7898 66.5111V66.5117C43.7092 67.1154 43.2743 68.9412 40.9918 69.1229C40.8595 69.0626 40.7049 69.0606 40.5853 69.1492C38.274 69.3019 37.5874 67.5392 37.4237 66.9497L37.4223 66.9463C37.3906 66.8311 37.3794 66.7617 37.3794 66.7617C37.488 66.7299 37.5979 66.7026 37.7087 66.68L37.7404 66.6722L37.7428 66.6738C39.4309 66.3378 40.2067 67.3618 40.5509 68.1902C40.4429 67.3193 40.2043 66.4746 39.7668 65.6844C39.7497 65.6874 39.7361 65.6905 39.7191 65.6935C39.7191 65.6935 39.7113 65.6469 39.7029 65.5655C39.6792 65.5248 39.6522 65.4848 39.6274 65.4448C36.9361 66.1664 36.1289 63.7298 36.1289 63.7298C36.2308 63.6822 36.3298 63.642 36.4254 63.6061L36.45 63.5958L36.4524 63.5969C37.0513 63.3783 37.5493 63.3757 37.9591 63.498C37.3224 62.906 36.6409 62.3583 35.9856 61.7831C35.9733 61.7905 35.9611 61.7986 35.9488 61.8055C35.9488 61.8055 35.9276 61.7693 35.8959 61.7043C35.8697 61.6809 35.8434 61.6581 35.8172 61.6352C34.2507 62.7368 33.0819 61.7567 32.744 61.4095L32.7441 61.4101L32.7429 61.4084C32.678 61.3416 32.6439 61.2991 32.6439 61.2991C32.7057 61.2378 32.7698 61.1788 32.836 61.1224L32.8537 61.1072L32.8549 61.1077C33.7298 60.3732 34.52 60.5746 35.0651 60.9213C34.7732 60.6269 34.4956 60.3192 34.242 59.9875C34.0239 59.7026 33.8234 59.4045 33.6418 59.0949C32.1868 59.9612 31.112 59.0575 30.791 58.7272L30.7898 58.7278V58.7266C30.725 58.66 30.691 58.617 30.691 58.617Z"
        fill="url(#paint9_linear_0_1)" />
    <path
        d="M48.939 7.00293C54.884 7.00293 59.3824 8.85282 62.4332 12.5512C64.858 15.4701 66.0708 18.8971 66.0708 22.8333C66.0708 29.417 62.6341 35.6778 55.7613 41.6157C53.365 43.6861 52.0889 46.0951 51.9322 48.8438C51.8532 49.7599 51.8138 50.778 51.8138 51.8978V55.7154L48.5593 57.2015L40.725 55.7154V51.8978C40.725 45.8915 42.4264 41.4296 45.8294 38.5109C49.5055 35.3549 52.0282 32.1149 53.3979 28.7887C54.1798 26.8544 54.5711 24.8185 54.5711 22.6806C54.5711 20.4751 54.0038 18.7445 52.8697 17.4887C51.6175 16.0301 49.7987 15.4359 47.4133 15.7071C45.1839 15.945 43.5796 17.2851 42.6024 19.7284C42.1716 20.7464 41.8781 21.9347 41.7224 23.2914L38.4679 24.7776L31.0444 21.6626C31.435 17.6923 32.9604 14.3503 35.6206 11.635C37.4193 9.8025 39.9228 8.47912 43.1305 7.6648C44.812 7.22406 46.748 7.00293 48.939 7.00293ZM40.7252 62.3833H51.8139V72.0546L48.5594 73.5407L40.7251 72.0546L37.4706 63.8695L40.7252 62.3833Z"
        fill="#232B57" />
    <path
        d="M62.6605 21.9564C62.6133 21.5925 62.5528 21.2305 62.479 20.871C61.9675 18.3464 60.8675 16.0693 59.1789 14.0379C58.6949 13.4495 58.1645 12.9008 57.593 12.397C54.6431 9.78984 50.6719 8.4881 45.685 8.4881C43.494 8.4881 41.558 8.70993 39.8768 9.14997C36.6683 9.96581 34.1656 11.2878 32.3671 13.1212C29.7069 15.8364 28.1814 19.1787 27.7909 23.1481L38.4687 24.778C38.6245 23.4213 38.9178 22.2314 39.3487 21.2138C40.3259 18.7717 41.9302 17.4316 44.1595 17.1931C46.5448 16.9218 48.3636 17.5158 49.6157 18.9752C49.9329 19.3253 50.2042 19.714 50.4316 20.1394C51.0219 21.2358 51.3171 22.5778 51.3171 24.1656C51.3171 26.3052 50.9248 28.3403 50.1437 30.2746C48.7741 33.6004 46.2514 36.84 42.5754 39.9971C40.498 41.7793 39.0534 44.137 38.2448 47.0705C38.0904 47.6314 37.962 48.1992 37.8599 48.7719C37.5996 50.191 37.4712 51.7292 37.4712 53.3829V57.2019H48.5597V53.3829C48.5597 52.2646 48.5982 51.2452 48.677 50.3302C48.8346 47.5801 50.1107 45.1729 52.507 43.101C58.6874 37.764 62.0884 32.1629 62.7118 26.3015C62.7815 25.6431 62.8164 24.9816 62.8162 24.3196C62.8162 23.5113 62.765 22.7228 62.6605 21.9564ZM37.4712 63.8701V73.5413H48.5597V63.8701H37.4712Z"
        fill="url(#paint10_linear_0_1)" />
    <g opacity="0.2">
        <path
            d="M62.4789 20.871L38.2449 47.0705C39.0535 44.1371 40.4982 41.7793 42.5755 39.9972C46.2515 36.84 48.7742 33.6004 50.1438 30.2746C50.9249 28.3403 51.3172 26.3052 51.3172 24.1657C51.3172 22.5778 51.022 21.2359 50.4317 20.1394L57.593 12.397C58.1645 12.9008 58.6948 13.4495 59.1789 14.0379C60.8674 16.0694 61.9674 18.3465 62.4789 20.871ZM62.8162 24.3197C62.8162 24.9835 62.7814 25.6435 62.7117 26.3016L37.4712 53.592V53.3829C37.4712 51.7291 37.5996 50.1909 37.8599 48.7719L62.6604 21.9565C62.765 22.7228 62.8162 23.5113 62.8162 24.3197Z"
            fill="white" />
    </g>
    <path opacity="0.1"
        d="M54.1701 40.945L49.7546 44.2877L46.8474 42.0032L46.7631 41.9998C46.6099 41.7433 46.2835 41.2237 46.0956 41.1178C45.8439 40.9761 45.2777 40.9506 45.2777 40.9506C45.2777 40.9506 44.5579 40.3524 44.5338 40.568C44.5098 40.7836 44.7872 41.094 44.7872 41.094C44.7872 41.094 43.3218 40.6611 43.2786 40.8728C43.2353 41.0846 43.4757 42.116 44.5356 41.9818C45.5956 41.8476 45.5643 41.9515 45.5643 41.9515C45.5643 41.9515 47.4172 45.774 49.6372 46.1319C51.3596 46.4097 55.1697 43.4129 55.1697 43.4129C55.1697 43.4129 56.665 41.2946 54.1701 40.945Z"
        fill="#231F20" />
    <path
        d="M54.1701 40.2668L49.7546 43.6095L46.8474 41.3251L46.7631 41.3217C46.6099 41.0651 46.2835 40.5455 46.0956 40.4396C45.8439 40.2979 45.2777 40.2724 45.2777 40.2724C45.2777 40.2724 44.5579 39.6742 44.5338 39.8898C44.5098 40.1055 44.7872 40.4159 44.7872 40.4159C44.7872 40.4159 43.3218 39.983 43.2786 40.1946C43.2353 40.4064 43.4757 41.4379 44.5356 41.3037C45.5956 41.1695 45.5643 41.2734 45.5643 41.2734C45.5643 41.2734 47.4172 45.0959 49.6372 45.4538C51.3596 45.7315 55.1697 42.7347 55.1697 42.7347C55.1697 42.7347 56.665 40.6164 54.1701 40.2668Z"
        fill="#F7BAAC" />
    <path
        d="M55.8187 38.7969C55.8187 38.7969 52.3251 41.1457 51.8899 41.6561C51.3399 42.3013 51.9339 44.8025 52.8525 44.6715C53.7711 44.5406 55.3581 43.4012 55.3581 43.4012L55.8187 38.7969Z"
        fill="#FEF3C9" />
    <path
        d="M65.3674 45.3266C65.2518 43.647 61.4589 39.843 61.4589 39.843C59.261 38.6117 60.3287 41.5999 60.3287 41.5999C60.3287 41.5999 62.6978 46.7615 64.3577 46.9117C64.8257 46.9541 65.4101 45.9481 65.3674 45.3266Z"
        fill="#E8AAA0" />
    <path
        d="M60.0617 38.8178C61.4044 38.1667 64.6163 42.8289 64.0799 43.2316C63.5436 43.6343 62.3446 45.651 61.6924 44.9908C61.0404 44.3307 60.2627 42.5226 60.2627 42.5226C60.2627 42.5226 59.2271 39.2225 60.0617 38.8178Z"
        fill="#FEF3C9" />
    <path d="M62.2127 70.7123L62.6606 72.4284L61.3885 72.6896L60.862 70.7327L62.2127 70.7123Z"
        fill="#E9C3B7" />
    <path
        d="M63.3522 72.7674L62.7129 71.7782H61.0567C61.0567 71.7782 60.9342 72.5085 61.2234 73.0032C61.5139 73.4953 62.2127 73.4807 62.2127 73.4807L63.3522 72.7674Z"
        fill="#222B5E" />
    <path
        d="M62.2127 73.4807C62.2127 73.4807 62.2429 72.5237 63.3523 72.5237C64.461 72.5237 64.2795 73.4807 64.2795 73.4807H62.2127ZM62.6118 71.323C62.6118 71.323 62.2543 71.4384 61.7574 71.4788C61.4878 71.5027 61.178 71.5027 60.8627 71.4513C60.3878 71.3743 59.363 66.6148 58.6681 62.6124C58.2978 60.4802 57.9806 58.5092 57.81 57.4458C57.8155 57.444 57.8191 57.4312 57.8191 57.4073C57.8485 57.0938 57.6138 54.9432 57.1078 53.9863C56.8107 53.4252 56.4313 52.9266 56.0737 52.4022C55.6722 51.8101 55.4646 51.9119 55.2813 51.217C55.2323 51.0344 55.1949 50.8488 55.1694 50.6615C57.2357 50.2673 58.1152 50.4935 58.1152 50.4935C58.1152 50.4935 61.3499 50.0718 61.3892 50.9362C61.4257 51.7385 61.8602 56.3054 61.8602 56.3054L62.6118 71.323Z"
        fill="#004A87" />
    <path d="M54.5125 70.7123L54.0645 72.4284L55.3368 72.6896L55.8632 70.7327L54.5125 70.7123Z"
        fill="#E9C3B7" />
    <path
        d="M58.4614 51.3987C58.4614 51.3987 56.1974 50.6678 54.1569 50.4935C54.1332 50.6755 54.3812 60.0042 54.5125 60.6079C54.627 61.1349 53.9048 71.1921 54.2525 71.3365C54.7167 71.5295 55.8052 71.5349 55.9376 71.2439C57.0989 68.6908 56.9057 64.327 57.5452 60.6079C58.455 55.3162 58.4614 51.3987 58.4614 51.3987Z"
        fill="#004A87" />
    <path
        d="M53.3729 72.7674L54.0122 71.7782H55.6685C55.6685 71.7782 55.791 72.5085 55.5017 73.0032C55.2112 73.4953 54.5124 73.4807 54.5124 73.4807L53.3729 72.7674Z"
        fill="#222B5E" />
    <path
        d="M54.5125 73.4807C54.5125 73.4807 54.4823 72.5237 53.3729 72.5237C52.2642 72.5237 52.4457 73.4807 52.4457 73.4807H54.5125Z"
        fill="#004A87" />
    <path
        d="M61.7575 71.4997C61.4879 71.5236 61.1781 71.5236 60.8628 71.4722C60.3879 71.3952 59.3631 66.6357 58.6682 62.6334C58.2979 60.5011 57.9808 58.5302 57.8102 57.4667L57.8193 57.4283L58.835 53.5067C58.835 53.5067 58.67 58.4569 58.835 59.7127C58.9946 60.9412 61.6328 71.0267 61.7575 71.4997Z"
        fill="#222B5E" />
    <path opacity="0.3"
        d="M54.1569 50.4935L54.1553 51.4469C54.1553 51.4469 56.9709 52.9447 58.4139 52.8637C59.8569 52.7827 60.8606 52.8298 61.4588 51.883L61.3892 50.9361L54.1569 50.4935Z"
        fill="#222B5E" />
    <path
        d="M57.5711 38.5191C56.8218 38.5604 55.0772 38.3642 54.7739 39.6086C54.41 41.102 53.1214 50.1791 54.157 50.9458C56.5981 52.753 60.899 52.2315 61.4363 51.2504C62.4693 49.3646 61.3776 39.8317 60.6689 38.8936C60.5139 38.6884 58.7613 38.4535 57.5711 38.5191Z"
        fill="#FEF3C9" />
    <path
        d="M58.9856 38.7842C58.9856 38.7842 58.8402 37.0809 58.8402 36.7693C58.8402 36.4577 59.3595 35.7515 58.9129 34.9206C58.4663 34.0898 56.5968 34.2351 56.1814 35.1906C55.7659 36.1462 55.8074 38.4933 56.4721 38.3687C57.1368 38.2441 57.1161 38.1195 57.1161 38.1195L57.033 39.4073C57.033 39.4073 57.2615 40.2174 58.1339 39.6358C59.0065 39.0542 58.9856 38.7842 58.9856 38.7842Z"
        fill="#F7B9AC" />
    <path
        d="M57.1162 38.1195L58.1056 37.462C58.1056 37.462 57.5324 38.5867 57.0726 38.797L57.1162 38.1195ZM55.973 36.0037L55.9432 36.2439C55.9432 36.2439 56.3361 36.3441 56.9721 36.1239C57.6081 35.9037 57.9093 35.3012 57.9093 35.3012C57.9093 35.3012 57.8045 36.2238 58.0402 36.2667C58.2759 36.3097 58.5247 35.6548 58.5247 35.6548L58.6693 36.6368L58.7735 35.2226L58.1057 34.7512L55.973 36.0037Z"
        fill="#E8A89E" />
    <path
        d="M57.8848 35.0037C57.8848 35.0037 56.803 36.2143 55.973 36.0037C55.1429 35.7931 54.3536 34.9753 54.8313 34.3768C55.309 33.7782 55.5791 31.7427 57.3239 32.2619C57.3239 32.2619 58.8195 32.4281 58.6532 32.989C58.6532 32.989 59.858 32.989 59.7541 33.9652C59.6502 34.9414 59.4425 36.5617 59.0064 36.7278C58.5702 36.8939 58.674 36.4785 58.674 36.4785L58.6116 35.5438C58.6116 35.5438 58.4454 35.3361 58.3831 35.7514C58.3207 36.1668 58.0922 36.2707 58.0507 35.793C58.0094 35.3153 58.3418 35.0661 57.8848 35.0037Z"
        fill="#232B57" />
    <path
        d="M59.5652 40.5824L58.6488 41.0297C58.5504 41.0778 58.4979 41.1884 58.5209 41.2991L59.1484 44.3024C59.1818 44.4619 59.3529 44.55 59.4949 44.4807L60.4112 44.0334C60.5096 43.9853 60.5621 43.8748 60.5391 43.7641L59.9117 40.7608C59.8783 40.6013 59.707 40.5131 59.5652 40.5824Z"
        fill="#FFDE6E" />
    <path
        d="M59.6754 40.7885L58.7917 41.2198C58.7455 41.2423 58.7081 41.2795 58.6854 41.3256C58.6626 41.3716 58.6557 41.4239 58.6658 41.4743L59.2296 44.2859C59.2366 44.3207 59.2515 44.3535 59.2731 44.3817C59.2947 44.4099 59.3225 44.4328 59.3544 44.4485C59.3862 44.4643 59.4213 44.4725 59.4568 44.4726C59.4923 44.4727 59.5274 44.4646 59.5593 44.449L60.443 44.0177C60.4892 43.9952 60.5266 43.958 60.5494 43.912C60.5722 43.8659 60.579 43.8136 60.5689 43.7633L60.0051 40.9516C59.9981 40.9168 59.9832 40.884 59.9616 40.8558C59.94 40.8276 59.9122 40.8048 59.8803 40.789C59.8485 40.7733 59.8134 40.765 59.7779 40.765C59.7424 40.7649 59.7073 40.7729 59.6754 40.7885Z"
        fill="#1F265A" />
    <path
        d="M60.0935 41.8029C60.0935 41.8029 59.9798 41.2552 60.1409 41.3479C60.302 41.4406 60.6282 42.1961 60.6788 42.6859C60.7293 43.1758 60.5027 43.8491 60.5027 43.8491C60.5027 43.8491 59.1602 43.8915 58.7473 43.1932C58.3344 42.495 58.4921 41.7177 58.4921 41.7177C58.4921 41.7177 59.3663 42.2847 59.7009 42.1128C60.0355 41.941 60.0935 41.8029 60.0935 41.8029Z"
        fill="#F7BAAC" />
    <path
        d="M60.6786 42.6859C60.6786 42.6859 62.2362 44.021 62.9213 44.1901C63.6065 44.359 64.1876 44.5969 64.1876 44.5969C64.1876 44.5969 65.7516 45.6785 65.0982 46.5351C64.4449 47.3917 63.3294 46.6108 62.7377 45.9812C62.1461 45.3516 60.5026 43.8492 60.5026 43.8492C60.5026 43.8492 60.3847 42.7312 60.6786 42.6859Z"
        fill="#F7BAAC" />
    <g opacity="0.1">
        <path
            d="M62.3826 34.8212L73.5759 34.7477C73.6562 34.7472 73.7359 34.7625 73.8103 34.7927C73.8847 34.823 73.9524 34.8676 74.0096 34.924C74.0667 34.9805 74.1122 35.0476 74.1435 35.1216C74.1747 35.1956 74.191 35.2751 74.1915 35.3554L74.2181 39.3922C74.2192 39.5545 74.1557 39.7104 74.0418 39.8259C73.9279 39.9413 73.7727 40.0068 73.6105 40.0079L64.7562 40.066C64.1996 40.7257 63.5282 41.5883 63.5282 41.5883L63.1886 40.0763L62.4172 40.0814C62.3369 40.0819 62.2573 40.0666 62.1829 40.0363C62.1085 40.0061 62.0407 39.9615 61.9836 39.905C61.9264 39.8486 61.8809 39.7815 61.8497 39.7075C61.8185 39.6334 61.8021 39.554 61.8016 39.4737L61.775 35.4368C61.774 35.2746 61.8374 35.1186 61.9513 35.0032C62.0653 34.8877 62.2204 34.8223 62.3826 34.8212Z"
            fill="#231F20" />
    </g>
    <path
        d="M62.6095 34.0336L73.8028 33.96C73.8831 33.9595 73.9627 33.9748 74.0371 34.0051C74.1116 34.0353 74.1793 34.0799 74.2364 34.1364C74.2936 34.1928 74.3391 34.2599 74.3703 34.334C74.4016 34.408 74.4179 34.4874 74.4184 34.5677L74.445 38.6047C74.446 38.7669 74.3826 38.9229 74.2687 39.0383C74.1547 39.1538 73.9996 39.2193 73.8374 39.2204L64.9831 39.2785C64.4265 39.9381 63.7549 40.8008 63.7549 40.8008L63.4154 39.2887L62.644 39.2938C62.4818 39.2949 62.3258 39.2314 62.2103 39.1175C62.0949 39.0035 62.0294 38.8484 62.0283 38.6861L62.0019 34.6493C62.0014 34.569 62.0167 34.4893 62.0469 34.4149C62.0771 34.3405 62.1217 34.2728 62.1782 34.2156C62.2346 34.1584 62.3017 34.1129 62.3757 34.0817C62.4497 34.0505 62.5292 34.0341 62.6095 34.0336Z"
        fill="#FFDE6E" />
    <path
        d="M66.7686 35.1408H73.4195V35.6417H66.7686V35.1408ZM66.7686 37.2445H73.4195V37.7453H66.7686V37.2445ZM66.7686 36.1926H73.4195V36.6935H66.7686V36.1926ZM64.2085 37.1681C64.1903 37.1243 64.1809 37.077 64.1809 37.0114C64.1809 36.454 64.7306 36.403 64.7306 35.7691C64.7306 35.5869 64.6388 35.5177 64.4784 35.5177C64.318 35.5177 64.2267 35.5869 64.2267 35.7691V36.046H63.7505V35.7946C63.7505 35.3866 64.0023 35.1534 64.4922 35.1534C64.9824 35.1534 65.2344 35.3866 65.2344 35.7946C65.2344 36.4575 64.6387 36.5596 64.6387 37.0259C64.6387 37.0732 64.6432 37.1207 64.657 37.1679H64.2085V37.1681ZM64.6709 37.3465V37.7327H64.1854V37.3465H64.6709Z"
        fill="white" />
    <path
        d="M28.7254 70.4905L28.7919 71.9403C28.7919 71.9403 27.4861 72.149 27.5142 72.0629C27.5423 71.9769 27.5557 69.6011 27.5557 69.6011L28.7254 70.4905Z"
        fill="#FFB092" />
    <path
        d="M28.8962 71.8394C28.8962 71.8394 27.6575 72.0858 27.4893 71.8962C27.4893 71.8962 27.3576 71.4486 27.2322 71.9789C27.1068 72.5092 27.0807 72.9053 27.2579 73.0186C27.4352 73.132 30.9274 73.1765 30.9274 73.1765C30.9274 73.1765 31.3348 72.7302 30.5228 72.5684C29.7108 72.4066 28.8962 71.8394 28.8962 71.8394Z"
        fill="#FEC70E" />
    <path
        d="M19.2783 70.0714L18.8742 71.4653C18.8742 71.4653 17.5708 71.2422 17.6251 71.1698C17.6794 71.0974 18.4576 68.8526 18.4576 68.8526L19.2783 70.0714Z"
        fill="#FFB092" />
    <path
        d="M19.0055 71.4035C19.0055 71.4035 17.7534 71.2377 17.6553 71.0038C17.6553 71.0038 17.6748 70.5377 17.3852 70.9993C17.0957 71.4609 16.9433 71.8276 17.0746 71.992C17.2059 72.1563 20.4976 73.3237 20.4976 73.3237C20.4976 73.3237 21.027 73.0324 20.3105 72.6177C19.5939 72.2029 19.0055 71.4035 19.0055 71.4035Z"
        fill="#FEC70E" />
    <path
        d="M27.2893 49.3805C27.2893 49.3805 28.7733 60.9051 28.9259 61.2103C29.0785 61.5154 29.1962 71.3489 29.1962 71.3489C29.1962 71.3489 26.9841 71.8066 27.0603 71.1963C27.1366 70.5861 24.6941 57.1012 24.6941 57.1012C24.6941 57.1012 22.1022 51.8215 23.1701 49.7619C24.2382 47.7024 27.2893 49.3805 27.2893 49.3805Z"
        fill="#222B5E" />
    <path
        d="M26.5545 49.3533C23.9818 61.049 23.1303 62.621 23.1303 62.621L19.0711 71.139C19.0711 71.139 16.8357 70.8137 17.1158 70.2661C17.3959 69.7187 20.3397 58.8798 20.3397 58.8798C20.3397 58.8798 19.0732 50.3629 20.7802 48.7919C22.4875 47.221 26.5545 49.3533 26.5545 49.3533Z"
        fill="#004A87" />
    <path
        d="M36.5318 40.5089L31.5762 41.1501L28.6162 39.8314C28.4357 39.9171 27.8902 41.7498 27.5157 42.1682C28.6845 43.1385 29.4928 42.3734 30.5217 42.8674C30.5217 42.8674 36.3205 41.4167 36.5708 41.6483C36.4396 40.2022 36.5318 40.5089 36.5318 40.5089Z"
        fill="#E9C3B7" />
    <path
        d="M38.5434 41.3555C38.6095 41.6007 38.3687 41.8681 38.1914 42.0267C37.1931 41.9595 36.3932 42.1373 35.6318 42.3671C35.6009 41.8753 35.4959 41.3938 35.3153 40.9427C36.1551 40.7058 36.8119 40.4242 36.8589 40.2782C36.9349 40.0414 37.1523 39.705 37.3813 39.8799C37.5754 40.0284 37.4277 40.3509 37.4277 40.3509C37.4277 40.3509 38.4446 40.9833 38.5434 41.3555Z"
        fill="#E9C3B7" />
    <path
        d="M29.0925 39.7035C29.1508 38.9382 27.1749 37.4283 27.1749 37.4283C26.1869 36.4339 24.1896 37.4281 24.7021 39.1405C24.8694 39.6993 25.9584 40.8477 27.2864 41.9755C27.6867 41.5336 29.0804 39.8618 29.0925 39.7035Z"
        fill="#004A87" />
    <path
        d="M27.8482 49.5784C27.1584 49.7525 26.4577 49.8743 25.773 49.956C23.1448 50.2714 20.7386 50.0016 20.113 49.7671C20.1029 49.763 20.0929 49.759 20.0861 49.7552C19.9988 49.7194 19.9528 49.6824 19.9547 49.6516L19.9553 49.6415C21.5515 45.2733 20.8131 46.1866 21.7753 41.6108C22.3104 39.0685 22.5756 38.4446 23.0961 37.6806C23.6949 36.8076 24.6033 36.1935 25.3196 36.1935C25.3196 36.1935 26.4363 36.5039 26.9513 37.237C27.0944 37.4408 27.4715 38.2365 27.6143 38.5058C27.9798 39.2097 28.1379 41.2177 28.0953 43.07C28.0363 45.6357 27.8482 49.5784 27.8482 49.5784Z"
        fill="#FEF3C9" />
    <path
        d="M20.5941 43.929L35.8736 40.2747C35.9832 40.2484 36.097 40.2441 36.2083 40.2618C36.3197 40.2795 36.4264 40.319 36.5225 40.378C36.6186 40.437 36.7021 40.5143 36.7683 40.6056C36.8344 40.6969 36.882 40.8003 36.9082 40.91L38.2262 46.4207C38.2524 46.5303 38.2568 46.644 38.2391 46.7554C38.2214 46.8667 38.1819 46.9735 38.1229 47.0695C38.0639 47.1656 37.9866 47.2491 37.8953 47.3153C37.8041 47.3815 37.7007 47.4291 37.591 47.4553L22.3114 51.1096C22.2018 51.1358 22.088 51.1402 21.9767 51.1224C21.8654 51.1047 21.7586 51.0652 21.6625 51.0062C21.5665 50.9473 21.4829 50.8699 21.4168 50.7787C21.3506 50.6874 21.303 50.584 21.2768 50.4744L19.9589 44.9638C19.9326 44.8541 19.9283 44.7404 19.946 44.629C19.9637 44.5177 20.0032 44.4109 20.0621 44.3148C20.1211 44.2187 20.1985 44.1352 20.2897 44.069C20.381 44.0028 20.4844 43.9553 20.5941 43.929Z"
        fill="#FFDE6E" />
    <path
        d="M33.3678 47.2572C34.8566 47.2572 36.0636 46.0502 36.0636 44.5614C36.0636 43.0726 34.8566 41.8656 33.3678 41.8656C31.8789 41.8656 30.672 43.0726 30.672 44.5614C30.672 46.0502 31.8789 47.2572 33.3678 47.2572Z"
        fill="url(#paint11_linear_0_1)" />
    <path
        d="M31.9389 44.1397C31.9474 44.1779 31.9633 44.2141 31.9859 44.2461C32.0085 44.278 32.0372 44.3052 32.0703 44.326C32.1035 44.3468 32.1405 44.3608 32.1791 44.3672C32.2177 44.3736 32.2572 44.3722 32.2953 44.3632C32.3334 44.3542 32.3693 44.3377 32.4009 44.3147C32.4326 44.2917 32.4594 44.2626 32.4797 44.2292C32.5 44.1958 32.5135 44.1586 32.5194 44.1199C32.5252 44.0812 32.5233 44.0417 32.5138 44.0038C32.4949 43.9285 32.4471 43.8636 32.3808 43.8233C32.3144 43.7829 32.2349 43.7703 32.1593 43.7882C32.0837 43.8061 32.0183 43.853 31.977 43.9188C31.9357 43.9845 31.9221 44.0639 31.9389 44.1397ZM33.8665 43.6989C33.8845 43.7751 33.932 43.841 33.9986 43.8822C34.0316 43.9026 34.0683 43.9163 34.1066 43.9225C34.1449 43.9287 34.184 43.9273 34.2217 43.9184C34.2595 43.9095 34.2951 43.8932 34.3265 43.8706C34.358 43.8479 34.3847 43.8192 34.4051 43.7863C34.4255 43.7533 34.4392 43.7166 34.4454 43.6783C34.4516 43.64 34.4502 43.6009 34.4413 43.5631C34.4233 43.4869 34.3757 43.421 34.3091 43.3798C34.2425 43.3386 34.1622 43.3256 34.086 43.3436C34.0098 43.3616 33.9438 43.4091 33.9027 43.4758C33.8615 43.5424 33.8485 43.6226 33.8665 43.6989Z"
        fill="#F7941D" />
    <path opacity="0.4"
        d="M32.5827 45.1032C32.5968 45.1667 32.5982 45.2323 32.5868 45.2962C32.5754 45.3602 32.5515 45.4213 32.5163 45.476C32.4812 45.5306 32.4356 45.5778 32.3821 45.6147C32.3287 45.6517 32.2684 45.6777 32.2049 45.6912C32.1413 45.7048 32.0757 45.7056 32.0119 45.6936C31.948 45.6817 31.8871 45.6572 31.8328 45.6216C31.7784 45.586 31.7316 45.54 31.6951 45.4862C31.6586 45.4325 31.6332 45.372 31.6202 45.3083C31.5942 45.1812 31.6195 45.0489 31.6906 44.9403C31.7617 44.8318 31.8728 44.7557 31.9998 44.7286C32.1267 44.7016 32.2592 44.7258 32.3684 44.7959C32.4776 44.8661 32.5546 44.9765 32.5827 45.1032ZM35.2681 44.531C35.2822 44.5944 35.2836 44.66 35.2722 44.724C35.2608 44.788 35.2368 44.849 35.2017 44.9037C35.1666 44.9584 35.121 45.0055 35.0675 45.0425C35.0141 45.0794 34.9538 45.1054 34.8903 45.119C34.8267 45.1325 34.7611 45.1333 34.6972 45.1214C34.6334 45.1094 34.5725 45.085 34.5181 45.0494C34.4638 45.0138 34.417 44.9678 34.3805 44.914C34.344 44.8602 34.3186 44.7998 34.3056 44.7361C34.2796 44.6089 34.3049 44.4767 34.376 44.3681C34.4471 44.2595 34.5582 44.1834 34.6852 44.1564C34.8121 44.1293 34.9446 44.1535 35.0538 44.2237C35.1629 44.2938 35.24 44.4043 35.2681 44.531Z"
        fill="#F4CF67" />
    <path
        d="M33.627 45.7825C34.2502 45.6584 34.6562 45.0503 34.5321 44.4271C34.5278 44.4096 34.5169 44.3945 34.5018 44.3849C34.4867 44.3752 34.4684 44.3718 34.4508 44.3753C34.4331 44.3788 34.4176 44.389 34.4073 44.4037C34.3969 44.4184 34.3927 44.4365 34.3954 44.4542C34.5046 45.0021 34.1476 45.5368 33.5997 45.646C33.0517 45.7551 32.5172 45.3982 32.408 44.8503C32.4042 44.8324 32.3935 44.8168 32.3782 44.8068C32.3629 44.7967 32.3443 44.7931 32.3264 44.7967C32.3085 44.8003 32.2927 44.8107 32.2824 44.8258C32.2722 44.8409 32.2682 44.8594 32.2715 44.8774C32.3958 45.5007 33.0037 45.9067 33.627 45.7825Z"
        fill="#F7941D" />
    <path
        d="M22.1888 46.2093L29.2008 44.5918C29.3469 44.5581 29.4296 44.3757 29.3855 44.1844C29.3414 43.9931 29.1872 43.8654 29.0411 43.8991L22.0291 45.5166C21.8831 45.5503 21.8004 45.7327 21.8446 45.924C21.8886 46.1153 22.0428 46.243 22.1888 46.2093ZM29.36 45.2817L22.3479 46.8992C22.2019 46.9329 22.1192 47.1153 22.1634 47.3066C22.2075 47.4979 22.3617 47.6256 22.5077 47.5919L29.5198 45.9744C29.6658 45.9407 29.7485 45.7583 29.7044 45.567C29.6603 45.3757 29.506 45.248 29.36 45.2817ZM29.6789 46.6641L22.6669 48.2817C22.5207 48.3154 22.4381 48.4978 22.4822 48.689C22.5263 48.8803 22.6806 49.0081 22.8266 48.9744L29.8386 47.3569C29.9846 47.3232 30.0673 47.1408 30.0231 46.9495C29.9791 46.7583 29.8249 46.6305 29.6789 46.6641Z"
        fill="white" />
    <path
        d="M34.0225 47.5612C34.0225 47.5612 34.7365 47.0377 34.6437 46.8117C34.5343 46.5451 34.1511 46.764 33.5681 47.2115C33.4893 47.269 33.2116 47.7388 31.9451 47.2235L28.2521 45.6105L26.2527 41.0475C25.1356 41.2508 24.8876 41.3241 23.8101 41.6874C24.3527 43.3296 25.7188 46.5477 26.471 47.66C26.471 47.66 32.2873 48.4134 32.3866 48.7395C32.3971 48.7174 32.4055 48.6981 32.4153 48.6765C32.8783 48.8416 33.3492 49.0625 33.8369 49.3933C34.07 49.3457 34.4127 49.2363 34.4793 48.9911C34.5816 48.6199 35.6809 49.2077 35.6809 49.2077C35.6809 49.2077 35.7357 49.2125 35.8236 49.2196C35.8713 49.0673 35.8784 48.9603 35.8784 48.9603C35.1862 47.93 34.0225 47.5612 34.0225 47.5612Z"
        fill="#E9C3B7" />
    <path
        d="M26.9033 41.9756C27.3823 41.5854 26.025 39.0801 26.025 39.0801C25.6734 37.7233 23.4473 37.5743 23.0262 39.3115C22.91 39.7908 22.9199 41.5612 24.0283 42.8661C24.9542 42.8864 26.0543 42.6673 26.9033 41.9756Z"
        fill="#004A87" />
    <path
        d="M37.0982 40.6957C37.0982 40.6957 36.1889 42.2679 36.7583 42.4039C37.3278 42.5399 38.1914 42.0268 38.1914 42.0268C38.1914 42.0268 38.22 40.6957 37.0982 40.6957Z"
        fill="#E9C3B7" />
    <path
        d="M25.7764 35.0601C25.6567 35.473 25.6012 36.0097 25.1275 36.4643C24.6542 36.9184 24.7186 36.7676 24.6542 36.9184C24.4377 37.4253 25.9342 38.5305 26.5053 38.1173C26.785 37.9149 26.7572 37.1758 27.1729 36.908C27.588 36.6413 25.7764 35.0601 25.7764 35.0601Z"
        fill="#DDAC9E" />
    <path
        d="M29.3966 35.2661C29.3993 35.2579 29.4013 35.2499 29.4035 35.2417C29.6673 34.4021 30.0161 33.7743 29.8288 33.1296C29.8119 33.0705 29.5958 32.8916 29.5062 32.7951C28.9506 31.4571 25.7764 31.7513 25.5936 32.6818C24.8135 36.6473 26.3762 37.2061 27.1119 37.387C27.4847 37.4732 27.6819 37.5448 28.0053 37.3945C28.2942 37.2605 28.6394 36.9351 28.911 36.4007C29.1595 36.3878 29.4272 36.4187 29.4731 36.2786C29.4846 36.2598 29.4924 36.2382 29.4925 36.211C29.3995 35.9363 29.4302 35.4593 29.3966 35.2661Z"
        fill="#E9C3B7" />
    <path
        d="M30.199 32.8221C29.8116 33.0325 29.2244 31.7261 28.0929 31.2516C27.7358 31.102 27.3854 30.9686 27.081 30.9846C26.3122 30.8794 26.029 31.2633 25.7113 31.5541C25.6267 31.6343 24.197 31.944 24.4974 33.8627C24.58 34.3879 24.7035 34.6309 24.7331 34.9527C24.8129 35.8181 24.6142 35.9297 24.6142 35.9297C24.6142 35.9297 25.301 36.2475 25.4963 35.9647C26.2956 34.7995 27.1304 34.6656 27.1304 34.6656C27.1304 34.6656 27.1607 34.5781 27.2093 34.4545C27.4799 34.4107 27.6784 34.507 27.6784 34.507C27.6784 34.507 27.9356 34.0078 28.2994 33.7036C28.7275 33.3437 28.7785 33.3622 29.032 33.3588C29.2843 33.3554 29.8629 33.749 29.8629 33.749C29.8629 33.749 30.8363 32.4756 30.199 32.8221Z"
        fill="#222B5E" />
    <path
        d="M27.4526 34.4071C27.4303 33.8946 27.0509 33.8644 26.8362 34.0608C26.6276 34.2615 26.6868 35.0388 26.8383 35.1383C27.2594 35.4153 27.4526 34.4071 27.4526 34.4071Z"
        fill="#DDAC9E" />
    <path
        d="M70.1877 25.9L70.248 25.7998L70.5505 25.9816L70.4903 26.0819C70.3893 26.2496 70.3325 26.3387 70.3325 26.3387L70.2697 26.4373L69.9718 26.2469L70.0354 26.1481C70.039 26.1426 70.0935 26.0567 70.1877 25.9ZM71.0544 24.3491C71.1462 24.1739 71.2366 23.998 71.3255 23.8214L71.3782 23.7169L71.6934 23.8756L71.6408 23.9801C71.551 24.1584 71.4598 24.336 71.3672 24.5129L71.3129 24.6165L71.0001 24.4525L71.0544 24.3491ZM70.4862 25.39C70.573 25.2377 70.6699 25.0644 70.775 24.872L70.8312 24.7691L71.1407 24.9385L71.0847 25.041C70.9891 25.2165 70.8918 25.391 70.7928 25.5646L70.7349 25.6662L70.4284 25.4916L70.4862 25.39ZM71.5882 23.2894C71.6742 23.1113 71.7589 22.9325 71.8422 22.7531L71.8916 22.6471L72.2117 22.7956L72.1624 22.9018C72.0784 23.0829 71.9929 23.2633 71.9061 23.443L71.8552 23.5483L71.5374 23.395L71.5882 23.2894ZM72.5505 21.1213C72.6246 20.9382 72.6971 20.7544 72.7679 20.57L72.8099 20.4607L73.1393 20.5873L73.0974 20.6965C73.0258 20.8829 72.9525 21.0686 72.8776 21.2537L72.8337 21.3623L72.5068 21.2296L72.5505 21.1213ZM66.7893 1.60651C66.9724 1.67565 67.1607 1.75229 67.349 1.83454L67.4563 1.88134L67.315 2.20473L67.2078 2.15805C67.0286 2.0798 66.8475 2.00603 66.6646 1.9368L66.5552 1.89538L66.6798 1.56521L66.7893 1.60651ZM68.9562 2.65939C69.1289 2.76081 69.3001 2.86491 69.4696 2.97166L69.5685 3.03403L69.3806 3.33273L69.2815 3.27037C69.1151 3.16558 68.9471 3.06335 68.7775 2.96371L68.6765 2.90439L68.8552 2.60019L68.9562 2.65939ZM72.9753 20.0145C73.042 19.8307 73.1079 19.6443 73.1724 19.4557L73.2102 19.3451L73.544 19.459L73.5063 19.5696C73.4418 19.7587 73.3754 19.9472 73.3072 20.135L73.2673 20.2448L72.9354 20.1245L72.9753 20.0145ZM67.8966 2.08808C68.0735 2.17478 68.2537 2.26756 68.4321 2.36385L68.5352 2.41954L68.3672 2.72994L68.2643 2.67448C68.0917 2.58128 67.9173 2.49145 67.7412 2.40503L67.6362 2.35355L67.7915 2.03672L67.8966 2.08808ZM69.9731 3.29856C70.0871 3.37461 70.2022 3.45324 70.318 3.53385C70.3686 3.56883 70.4189 3.60428 70.4685 3.64008L70.5635 3.70853L70.3571 3.99483L70.2622 3.9265C70.2141 3.89188 70.1656 3.85771 70.1168 3.82401C70.0043 3.74566 69.891 3.66836 69.777 3.59212L69.6799 3.52718L69.8758 3.23386L69.9731 3.29856ZM71.8507 4.81289C71.993 4.95609 72.1311 5.1035 72.2646 5.25492L72.3418 5.34267L72.0771 5.57609L71.9997 5.48822C71.8708 5.34201 71.7375 5.19967 71.6001 5.0614L71.5176 4.97833L71.7681 4.72982L71.8507 4.81289ZM70.95 4.00524C71.1074 4.13135 71.2613 4.26177 71.4115 4.39637L71.4988 4.47453L71.2632 4.73708L71.176 4.65904C71.0306 4.52883 70.8816 4.40266 70.7292 4.28066L70.6378 4.20754L70.8585 3.93212L70.95 4.00524ZM72.0872 22.2131C72.1675 22.0325 72.2462 21.8512 72.3233 21.6692L72.3689 21.5614L72.6938 21.6994L72.6482 21.807C72.5703 21.9908 72.4907 22.174 72.4096 22.3565L72.3621 22.4634L72.0396 22.3201L72.0872 22.2131ZM73.779 8.48588C73.7119 8.30292 73.6395 8.12196 73.5619 7.94323L73.5152 7.83606L73.8386 7.69519L73.8854 7.80248C73.9659 7.98759 74.041 8.17502 74.1105 8.36455L74.1507 8.47441L73.8193 8.59586L73.779 8.48588ZM74.118 9.60592C74.0719 9.4162 74.0207 9.2278 73.9642 9.04092L73.9303 8.92895L74.2681 8.8267L74.3019 8.93866C74.3597 9.12937 74.413 9.32582 74.4607 9.52261L74.4882 9.63622L74.1453 9.71952L74.118 9.60592ZM74.3346 10.7581C74.3076 10.561 74.2761 10.3661 74.2409 10.1791L74.2192 10.064L74.5661 9.9988L74.5877 10.1137C74.624 10.3064 74.6565 10.5072 74.6842 10.7103L74.7002 10.8263L74.3504 10.874L74.3346 10.7581ZM73.3583 18.8934C73.4179 18.7065 73.4762 18.5177 73.5326 18.3274L73.5658 18.2154L73.9042 18.3155L73.871 18.4277C73.8142 18.6194 73.7554 18.8104 73.6945 19.0008L73.659 19.1123L73.3227 19.0046L73.3583 18.8934ZM72.7163 6.41065C72.6067 6.24971 72.492 6.09226 72.3724 5.93855L72.3006 5.84624L72.5792 5.62955L72.651 5.72198C72.7751 5.88152 72.8941 6.0449 73.008 6.21186L73.0739 6.3085L72.7821 6.50752L72.7163 6.41065ZM73.3118 7.41497C73.2233 7.24157 73.1293 7.07106 73.0299 6.90368L72.9701 6.80306L73.2737 6.62277L73.3334 6.72339C73.4364 6.89728 73.5341 7.0743 73.6262 7.25422L73.6796 7.35846L73.3651 7.51922L73.3118 7.41497ZM74.4399 11.9285C74.4308 11.7305 74.4175 11.533 74.4005 11.3418L74.3901 11.2254L74.7416 11.1937L74.752 11.3104C74.7697 11.5081 74.7833 11.7106 74.7925 11.9125L74.7977 12.0292L74.4454 12.0455L74.4399 11.9285ZM73.6948 17.758C73.7465 17.5686 73.7962 17.3776 73.8438 17.1855L73.8719 17.072L74.2147 17.1567L74.1865 17.2704C74.1383 17.4644 74.0879 17.6579 74.0354 17.8508L74.0047 17.9637L73.664 17.871L73.6948 17.758ZM74.4454 13.1055C74.4521 12.9111 74.4552 12.713 74.4545 12.5168L74.454 12.3999L74.8069 12.3981L74.8073 12.5152C74.8081 12.7161 74.805 12.9169 74.7982 13.1177L74.7943 13.2347L74.4414 13.2225L74.4454 13.1055ZM73.979 16.6106C74.0216 16.4188 74.0618 16.2261 74.0996 16.0325L74.1219 15.9176L74.4681 15.9852L74.4459 16.0999C74.4077 16.2961 74.3669 16.4917 74.3237 16.6869L74.2984 16.8012L73.9536 16.7249L73.979 16.6106ZM74.3631 14.2816C74.3812 14.1076 74.3972 13.9287 74.4105 13.7503L74.4227 13.5779L74.7749 13.6018L74.7625 13.776C74.7491 13.957 74.733 14.1378 74.7142 14.3183L74.702 14.4347L74.3509 14.3979L74.3631 14.2816ZM74.2045 15.4514C74.2372 15.255 74.267 15.0587 74.2928 14.8679L74.3084 14.752L74.6583 14.7992L74.6425 14.9153C74.6166 15.1063 74.5863 15.3062 74.5527 15.5094L74.5336 15.6249L74.1852 15.5668L74.2045 15.4514ZM60.2567 1.4399L60.37 1.41065L60.4583 1.75241L60.345 1.78154C60.1549 1.83056 59.9644 1.88193 59.7727 1.93469L59.6599 1.96581L59.5661 1.62558L59.6789 1.59457C59.8725 1.54122 60.0651 1.48939 60.2567 1.4399ZM50.3615 2.68572C50.5519 2.70338 50.7486 2.72035 50.9518 2.73614L51.0684 2.74527L51.0411 3.0972L50.9245 3.08808C50.7258 3.07259 50.5272 3.05562 50.3288 3.03718L50.2123 3.0263L50.2452 2.67495L50.3615 2.68572ZM45.7064 1.87573C45.8922 1.92358 46.0829 1.97155 46.281 2.01964L46.3947 2.04725L46.3115 2.39017L46.1978 2.36268C46.0043 2.31561 45.8112 2.26729 45.6184 2.21772L45.5049 2.18858L45.5929 1.84659L45.7064 1.87573ZM49.1853 2.55585C49.374 2.5803 49.5696 2.60358 49.7727 2.62593L49.8891 2.6388L49.8503 2.98956L49.7341 2.97681C49.5359 2.95503 49.3379 2.93136 49.1401 2.90579L49.0242 2.89082L49.0692 2.54075L49.1853 2.55585ZM48.0162 2.38046C48.2028 2.41264 48.3968 2.44411 48.5993 2.4743L48.715 2.4915L48.663 2.84086L48.5471 2.82342C48.3498 2.79382 48.1527 2.76211 47.9561 2.7283L47.8407 2.70841L47.9007 2.36057L48.0162 2.38046ZM44.5541 1.57714C44.7457 1.62535 44.9371 1.67507 45.1316 1.72597L45.2447 1.75557L45.1553 2.09686L45.0422 2.06725C44.8489 2.01683 44.6584 1.96722 44.4679 1.91925L44.3544 1.8907L44.4404 1.54859L44.5541 1.57714ZM46.8568 2.15278C47.0421 2.19373 47.2343 2.23386 47.4353 2.27341L47.5502 2.29611L47.4817 2.64219L47.3671 2.61961C47.1635 2.5796 46.9686 2.53876 46.7809 2.49746L46.6666 2.47231L46.7424 2.12739L46.8568 2.15278ZM39.1969 1.03683L39.3139 1.03356L39.3238 1.38608L39.2069 1.38947C39.0163 1.39497 38.8191 1.40234 38.6148 1.41159L38.498 1.41685L38.4818 1.06445L38.5986 1.05906C38.805 1.04959 39.0042 1.04222 39.1969 1.03683ZM65.6349 1.24252C65.8263 1.29049 66.0225 1.34618 66.2179 1.40808L66.3294 1.44341L66.223 1.7799L66.1114 1.74457C65.9256 1.68563 65.7381 1.63237 65.549 1.58486L65.4354 1.55631L65.5214 1.21421L65.6349 1.24252ZM41.5739 1.07755L41.7122 1.08773L41.6864 1.43967L41.5481 1.42949C41.3592 1.41564 41.1701 1.40476 40.9809 1.39684L40.864 1.39193L40.8788 1.03929L40.9957 1.04421C41.1909 1.05251 41.3853 1.06375 41.5739 1.07755ZM42.1944 1.13465C42.3955 1.15699 42.5962 1.18332 42.7911 1.21292L42.9067 1.23047L42.8539 1.57913L42.7383 1.5617C42.5445 1.53253 42.3502 1.50714 42.1554 1.48553L42.0391 1.47266L42.0781 1.12178L42.1944 1.13465ZM43.3836 1.31436C43.5803 1.352 43.7764 1.39307 43.9717 1.43756L44.0857 1.46342L44.0079 1.80763L43.8937 1.78177C43.7024 1.73818 43.5103 1.69801 43.3175 1.66126L43.2025 1.63939L43.2687 1.2926L43.3836 1.31436ZM40.3955 1.02712L40.5125 1.02888L40.5074 1.38175L40.3904 1.38C40.2008 1.37719 40.0038 1.37672 39.7991 1.37836L39.6822 1.37929L39.679 1.02642L39.796 1.02537C40.0037 1.02361 40.2033 1.0242 40.3955 1.02712ZM62.6243 1.00396L62.741 0.993896L62.7712 1.3456L62.6547 1.35566C62.4652 1.37204 62.2696 1.3945 62.0732 1.42258L61.9572 1.4392L61.9076 1.08984L62.0233 1.07322C62.223 1.04456 62.4234 1.02146 62.6243 1.00396Z"
        fill="#838BF3" />
    <path d="M58.4188 1.95142L59.217 1.72561L59.313 2.06515L58.5148 2.29096L58.4188 1.95142Z"
        fill="#838BF3" />
    <path
        d="M61.428 1.17292L61.5429 1.15092L61.6093 1.49771L61.4942 1.51959C61.3125 1.55422 61.1243 1.594 60.9187 1.64115L60.8048 1.66736L60.7257 1.32361L60.8397 1.29729C61.0455 1.24991 61.238 1.20931 61.428 1.17292ZM63.8359 0.976944L63.9528 0.982093L63.9372 1.33473L63.8203 1.32958C63.6261 1.32112 63.4317 1.31917 63.2374 1.32373L63.1203 1.32654L63.1125 0.973552L63.2294 0.97086C63.4315 0.96614 63.6338 0.968169 63.8359 0.976944ZM64.4412 1.02468C64.6426 1.04761 64.8447 1.07768 65.0419 1.11395L65.1569 1.13501L65.0935 1.48215L64.9784 1.46097C64.7871 1.42596 64.5946 1.39739 64.4013 1.37533L64.2852 1.36211L64.3248 1.01122L64.4412 1.02468ZM57.9596 2.07593L58.0723 2.04539L58.1649 2.38597L58.0518 2.41651C57.8613 2.46799 57.6686 2.51877 57.4731 2.56826L57.3597 2.59704L57.273 2.25482L57.3865 2.22615C57.5801 2.17713 57.771 2.12682 57.9596 2.07593ZM52.0148 2.80636L52.2521 2.81852L52.2352 3.17116L51.9958 3.15888C51.8338 3.14999 51.6753 3.14051 51.5206 3.13045L51.4038 3.12284L51.4267 2.77067L51.5435 2.77828C51.697 2.78822 51.8541 2.79758 52.0148 2.80636ZM54.4872 2.75359L54.6036 2.74212L54.638 3.09312L54.5216 3.10459C54.3209 3.12448 54.1192 3.14063 53.9221 3.15268L53.8055 3.15981L53.7836 2.80776L53.9004 2.80051C54.0943 2.78869 54.2917 2.77278 54.4872 2.75359ZM53.3123 2.82601L53.4294 2.82297L53.438 3.17608L53.321 3.179C53.1221 3.18391 52.9198 3.1852 52.7197 3.18286L52.6028 3.18158L52.6067 2.82859L52.7238 2.82999C52.9207 2.83221 53.1187 2.83093 53.3123 2.82601ZM56.8118 2.36515L56.9257 2.33894L57.0048 2.6828L56.8908 2.70901C56.6931 2.75441 56.4957 2.797 56.304 2.83549L56.1892 2.85854L56.12 2.51257L56.2346 2.48952C56.4226 2.45173 56.6169 2.40996 56.8118 2.36515ZM55.6547 2.59693L55.7701 2.57739L55.8289 2.92534L55.7135 2.94488C55.5159 2.97839 55.3177 3.0085 55.119 3.03521L55.0031 3.05065L54.9562 2.70094L55.0721 2.68538C55.2646 2.65952 55.4606 2.6298 55.6547 2.59693ZM37.676 1.11173C37.7767 1.10494 37.876 1.09862 37.9739 1.09254L38.0906 1.08529L38.1124 1.43746L37.9956 1.44471C37.897 1.45085 37.7985 1.45725 37.7 1.4639L37.5832 1.47185L37.5592 1.11968L37.676 1.11173Z"
        fill="#838BF3" />
    <path
        d="M36.9838 2.32592L36.316 3.00358C36.316 3.00358 32.1345 2.31059 32.4427 2.33504C32.7509 2.35938 36.7294 0.931396 36.7294 0.931396L36.9838 2.32592Z"
        fill="#F8AD18" />
    <path
        d="M37.4433 2.73114L37.1945 1.57963L33.1627 2.23377L36.8557 1.24571L36.5376 0.455139L32.4426 2.3351L37.4433 2.73114Z"
        fill="#FFDE6E" />
    <defs>
        <radialGradient id="paint0_radial_0_1" cx="0" cy="0" r="1" gradientUnits="userSpaceOnUse"
            gradientTransform="translate(90.9077 82.302) rotate(5.94092) scale(41.4356 21.6094)">
            <stop stop-color="white" />
            <stop offset="0.224" stop-color="#FCFEFF" />
            <stop offset="0.36" stop-color="#F4F9FE" />
            <stop offset="0.473" stop-color="#E6F1FD" />
            <stop offset="0.574" stop-color="#D1E6FC" />
            <stop offset="0.666" stop-color="#B7D8FA" />
            <stop offset="0.751" stop-color="#96C7F7" />
            <stop offset="0.833" stop-color="#6FB2F5" />
            <stop offset="0.91" stop-color="#429AF2" />
            <stop offset="0.982" stop-color="#117FEE" />
            <stop offset="1" stop-color="#0378ED" />
        </radialGradient>
        <radialGradient id="paint1_radial_0_1" cx="0" cy="0" r="1" gradientUnits="userSpaceOnUse"
            gradientTransform="translate(-7.05547 82.302) rotate(174.059) scale(41.4356 21.6094)">
            <stop stop-color="white" />
            <stop offset="0.224" stop-color="#FCFEFF" />
            <stop offset="0.36" stop-color="#F4F9FE" />
            <stop offset="0.473" stop-color="#E6F1FD" />
            <stop offset="0.574" stop-color="#D1E6FC" />
            <stop offset="0.666" stop-color="#B7D8FA" />
            <stop offset="0.751" stop-color="#96C7F7" />
            <stop offset="0.833" stop-color="#6FB2F5" />
            <stop offset="0.91" stop-color="#429AF2" />
            <stop offset="0.982" stop-color="#117FEE" />
            <stop offset="1" stop-color="#0378ED" />
        </radialGradient>
        <linearGradient id="paint2_linear_0_1" x1="50.5269" y1="70.3345" x2="50.5091" y2="70.3238"
            gradientUnits="userSpaceOnUse">
            <stop offset="0.268" stop-color="#8DC63F" />
            <stop offset="1" stop-color="#009444" />
        </linearGradient>
        <linearGradient id="paint3_linear_0_1" x1="73.1365" y1="53.7474" x2="45.5769" y2="70.3776"
            gradientUnits="userSpaceOnUse">
            <stop stop-color="#9463D3" />
            <stop offset="1" stop-color="#3F53C4" />
        </linearGradient>
        <linearGradient id="paint4_linear_0_1" x1="51.1233" y1="71.7552" x2="51.1023" y2="71.7736"
            gradientUnits="userSpaceOnUse">
            <stop offset="0.268" stop-color="#8DC63F" />
            <stop offset="1" stop-color="#009444" />
        </linearGradient>
        <linearGradient id="paint5_linear_0_1" x1="39.0575" y1="35.7304" x2="49.068" y2="78.2001"
            gradientUnits="userSpaceOnUse">
            <stop stop-color="#9463D3" />
            <stop offset="1" stop-color="#3F53C4" />
        </linearGradient>
        <linearGradient id="paint6_linear_0_1" x1="32.2743" y1="51.6554" x2="70.4868" y2="60.0066"
            gradientUnits="userSpaceOnUse">
            <stop stop-color="#9463D3" />
            <stop offset="1" stop-color="#3F53C4" />
        </linearGradient>
        <linearGradient id="paint7_linear_0_1" x1="32.1263" y1="52.334" x2="70.3383" y2="60.685"
            gradientUnits="userSpaceOnUse">
            <stop stop-color="#9463D3" />
            <stop offset="1" stop-color="#3F53C4" />
        </linearGradient>
        <linearGradient id="paint8_linear_0_1" x1="59.6179" y1="61.6977" x2="31.0385" y2="54.9523"
            gradientUnits="userSpaceOnUse">
            <stop stop-color="#9463D3" />
            <stop offset="1" stop-color="#3F53C4" />
        </linearGradient>
        <linearGradient id="paint9_linear_0_1" x1="59.4979" y1="62.2051" x2="30.9188" y2="55.4598"
            gradientUnits="userSpaceOnUse">
            <stop stop-color="#9463D3" />
            <stop offset="1" stop-color="#3F53C4" />
        </linearGradient>
        <linearGradient id="paint10_linear_0_1" x1="27.7908" y1="41.0148" x2="62.8162" y2="41.0148"
            gradientUnits="userSpaceOnUse">
            <stop stop-color="#FAC600" />
            <stop offset="1" stop-color="#FBB606" />
        </linearGradient>
        <linearGradient id="paint11_linear_0_1" x1="30.6714" y1="44.5614" x2="36.0642" y2="44.5614"
            gradientUnits="userSpaceOnUse">
            <stop stop-color="#FAC600" />
            <stop offset="1" stop-color="#FBB606" />
        </linearGradient>
    </defs>
</svg>
    