<svg width="210" height="63" viewBox="0 0 210 63" fill="none" xmlns="http://www.w3.org/2000/svg">
    <g clip-path="url(#clip0_493_45)">
        <path
            d="M17.7997 54.8844C17.45 54.5106 17.2671 54.023 17.2845 53.5115C17.3521 51.5185 17.6149 49.9296 17.9763 48.6605C16.7924 48.8447 15.4356 48.9703 13.9129 48.9891V60.4728C13.9129 61.7552 14.9535 62.7947 16.2366 62.7947C17.5199 62.7947 18.5602 61.7552 18.5602 60.4728V55.3822C18.2735 55.281 18.0132 55.1127 17.7997 54.8844ZM13.1385 48.9891C11.3586 48.9673 9.80733 48.7982 8.49123 48.5621V60.4726C8.49123 61.7549 9.53244 62.7944 10.8149 62.7944C12.0984 62.7944 13.1385 61.7549 13.1385 60.4726V48.9891ZM1.31308 41.0459C2.1396 41.155 2.89872 40.5731 3.00793 39.7468C3.96899 32.4653 5.84438 28.6234 7.44769 26.6071L3.45663 46.2066C3.45663 46.2066 6.94532 48.2962 13.5258 48.2962C15.3215 48.2962 16.8851 48.14 18.2123 47.9138C19.2182 45.0396 20.7342 44.1123 21.2465 43.8732C21.4213 43.7545 21.6123 43.6726 21.8128 43.6289C21.0472 42.8246 20.5738 41.7403 20.5738 40.5453C20.5738 39.3495 21.0479 38.2646 21.8142 37.4603L19.6061 26.6164C20.9356 28.2967 22.4578 31.2389 23.4847 36.3546C23.8448 36.219 24.225 36.125 24.6221 36.0865C24.6065 33.9072 24.6987 31.925 24.9002 30.1465C22.1465 22.6958 18.2258 21.6031 17.3166 21.4487C16.9183 21.3491 15.2351 20.9556 13.5261 20.9556C11.8173 20.9556 10.1338 21.3491 9.73553 21.4487C8.53723 21.6521 2.10799 23.4817 0.0134785 39.3523C-0.095732 40.1787 0.486104 40.9367 1.31308 41.0459Z"
            fill="#002E58" />
        <path
            d="M13.5258 19.9121C16.2849 19.9121 18.5216 17.6771 18.5216 14.9202C18.5216 12.1632 16.2849 9.92822 13.5258 9.92822C10.7667 9.92822 8.53003 12.1632 8.53003 14.9202C8.53003 17.6771 10.7667 19.9121 13.5258 19.9121Z"
            fill="#002E58" />
        <path
            d="M100.929 30.3681C100.528 30.7366 100.07 31.0442 99.5713 31.2776C100.108 31.3586 100.541 31.4649 100.89 31.5796C100.89 31.5599 100.889 31.5411 100.889 31.5214C100.889 31.1385 100.903 30.7538 100.929 30.3681ZM102.275 24.4554C102.385 24.1774 102.499 23.9009 102.62 23.6272H103.389C103.09 24.2756 102.827 24.9427 102.597 25.6216C102.638 25.8879 102.659 26.1607 102.659 26.4384C102.659 27.5603 102.31 28.6021 101.716 29.4626C101.634 30.1478 101.586 30.8353 101.586 31.5214C101.586 31.6361 101.592 31.7461 101.595 31.8587C103.337 32.6684 106.262 35.0006 107.941 41.6935C110.163 42.6634 112.783 43.0852 115.491 43.0852C116.381 43.0852 117.262 43.039 118.122 42.9436C117.354 42.4061 116.861 41.5066 116.89 40.502C117.158 31.1668 118.986 24.8779 122.323 21.8101C123.822 20.4312 125.262 20.0362 126.129 19.9327C125.18 18.8212 124.605 17.3812 124.605 15.8089C124.605 14.7281 124.877 13.7099 125.354 12.8177C123.947 11.9119 122.66 11.4933 121.809 11.3013C120.425 13.3083 118.11 14.6273 115.491 14.6273C112.873 14.6273 110.558 13.3083 109.174 11.3013C107.727 11.6275 105.022 12.6047 102.611 15.52C101.242 17.1739 100.184 19.1829 99.4361 21.5377C100.725 22.0968 101.75 23.1493 102.275 24.4554ZM108.727 45.8633C108.877 46.9736 108.096 47.9987 106.985 48.1487C106.894 48.161 106.802 48.167 106.711 48.167H106.711C106.278 48.167 105.873 48.0279 105.539 47.7911L108.007 60.2277C108.007 61.7588 109.542 62.9998 111.434 62.9998C113.328 62.9998 114.863 61.7585 114.863 60.2277V43.7727C112.344 43.7126 110.072 43.2891 108.137 42.5266C108.364 43.5433 108.564 44.652 108.727 45.8633ZM117.554 55.6705L119.694 43.4625C119.691 43.4625 119.687 43.4625 119.683 43.4623C119.622 43.4604 119.562 43.4535 119.501 43.4479C118.434 43.6346 117.304 43.7446 116.119 43.773V60.228C116.119 61.759 117.654 63 119.547 63C121.439 63 122.974 61.7588 122.974 60.228L123.408 58.0443C120 57.1929 118.122 56.0301 118.001 55.9533L117.554 55.6705Z"
            fill="#002E58" />
        <path
            d="M115.491 13.931C119.341 13.931 122.462 10.8124 122.462 6.96548C122.462 3.11855 119.341 0 115.491 0C111.641 0 108.52 3.11855 108.52 6.96548C108.52 10.8124 111.641 13.931 115.491 13.931Z"
            fill="#002E58" />
        <path
            d="M82.6804 11.7422C85.5679 11.7422 87.9086 9.40325 87.9086 6.51806C87.9086 3.63286 85.5679 1.29395 82.6804 1.29395C79.793 1.29395 77.4523 3.63286 77.4523 6.51806C77.4523 9.40325 79.793 11.7422 82.6804 11.7422Z"
            fill="#002E58" />
        <path
            d="M74.6528 37.993C74.7682 37.8052 74.8503 37.5955 74.893 37.3722C74.4532 34.9389 73.9036 32.9832 73.3134 31.415L74.6528 37.993Z"
            fill="#002E58" />
        <path
            d="M75.2855 25.3005C75.5727 22.9986 75.9742 21.3077 76.3957 20.0711V27.2135C77.7822 29.936 79.026 33.7912 79.7471 39.2549C79.9092 40.4862 79.0391 41.6199 77.8068 41.7822C77.7088 41.7952 77.6089 41.8017 77.5106 41.8017C77.1074 41.8017 76.7266 41.6924 76.3957 41.5024V46.5534L76.3999 46.5733L76.3957 46.5759V59.9306C76.3957 61.5164 77.6823 62.801 79.2684 62.801C80.855 62.801 82.1416 61.5164 82.1416 59.9306V36.5718H83.2186V59.9303C83.2186 61.5161 84.5052 62.8008 86.0913 62.8008C87.6778 62.8008 88.9644 61.5161 88.9644 59.9303V47.8742C88.6568 48.0602 88.2978 48.1666 87.9181 48.1668C87.8272 48.1668 87.7355 48.1605 87.6448 48.1484C86.5332 47.9982 85.7518 46.9731 85.9016 45.8631C86.5355 41.1758 87.6971 38.01 88.9644 35.8718V20.0216C89.7905 22.4361 90.5445 26.6084 90.5006 33.7768C91.5829 32.5985 92.6206 32.0101 93.3621 31.7178C93.5901 31.6233 93.867 31.5297 94.2033 31.4455C94.1991 31.2172 94.1944 30.9897 94.1884 30.7656C92.8458 29.7946 91.9698 28.217 91.9698 26.438C91.9698 25.0063 92.5377 23.7054 93.4588 22.7456C92.7824 18.9173 91.657 16.1808 90.086 14.5669C89.1324 13.5874 88.2197 13.2453 87.6395 13.1295C87.4892 13.0886 87.3318 13.0649 87.1685 13.0649H78.1912C78.0267 13.0649 77.8679 13.0889 77.7167 13.1304C77.136 13.246 76.2282 13.5864 75.2739 14.5669C73.8225 16.058 72.7511 18.5061 72.0628 21.8883C73.0474 22.5691 74.1792 23.6346 75.2855 25.3005Z"
            fill="#002E58" />
        <path
            d="M176.632 11.7422C179.52 11.7422 181.86 9.40325 181.86 6.51806C181.86 3.63286 179.52 1.29395 176.632 1.29395C173.745 1.29395 171.404 3.63286 171.404 6.51806C171.404 9.40325 173.745 11.7422 176.632 11.7422Z"
            fill="#002E58" />
        <path
            d="M167.578 24.6669C167.578 26.5487 166.627 28.2123 165.181 29.2051C165.176 29.3015 165.173 29.3995 165.168 29.4965H165.559C165.627 29.4902 165.695 29.4865 165.765 29.4865C165.822 29.4865 165.879 29.49 165.936 29.4942L165.976 29.4965C166.06 29.4965 166.142 29.5021 166.223 29.5114C167.164 29.5996 168.062 29.9832 168.849 30.621C169.01 25.3904 169.652 22.1129 170.348 20.0711V32.3661C172.027 35.0958 172.753 39.6575 172.454 45.7133C172.397 46.8654 171.484 47.7758 170.348 47.8475V59.9308C170.348 61.5166 171.634 62.8013 173.22 62.8013C174.807 62.8013 176.094 61.5166 176.094 59.9308V36.5718H177.171V59.9303C177.171 61.5161 178.457 62.8008 180.043 62.8008C181.63 62.8008 182.917 61.5161 182.917 59.9303V42.2598C182.597 42.4205 182.247 42.5171 181.88 42.5385C181.828 42.5415 181.775 42.5431 181.723 42.5431C180.324 42.5433 179.162 41.4486 179.081 40.0508C178.496 30.0626 179.787 23.4765 182.917 20.4683V20.0216C182.954 20.1312 182.991 20.2457 183.028 20.3624C184.323 19.1702 185.61 18.8393 186.414 18.7634C185.788 16.9528 184.996 15.5509 184.038 14.5669C183.085 13.5874 182.172 13.2453 181.592 13.1295C181.441 13.0886 181.284 13.0649 181.121 13.0649H172.143C171.979 13.0649 171.82 13.0889 171.669 13.1304C171.088 13.246 170.18 13.5864 169.226 14.5669C167.9 15.9291 166.892 18.0926 166.203 21.0351C167.058 22.0049 167.578 23.2761 167.578 24.6669ZM25.4102 36.0819C27.1297 36.2166 28.579 37.3215 29.2068 38.8502C28.8513 31.2941 29.744 27.1954 30.742 25.121V45.58C31.7121 46.9625 32.6906 49.3697 32.831 53.5114C32.8484 54.0227 32.6655 54.5103 32.3158 54.8841C31.9661 55.2579 31.4919 55.4734 30.98 55.4905L30.9144 55.4917C30.8561 55.4917 30.799 55.4884 30.742 55.4833V59.9552C30.742 61.541 32.0286 62.8257 33.615 62.8257C35.2015 62.8257 36.4881 61.541 36.4881 59.9552V38.9958H37.5651V59.9552C37.5651 61.541 38.8517 62.8257 40.4378 62.8257C42.0244 62.8257 43.311 61.541 43.311 59.9552V47.7347C42.4559 47.447 41.8269 46.6625 41.7797 45.7131C41.5172 40.3994 42.0437 36.2349 43.311 33.4499V25.1215C43.9019 26.3493 44.4554 28.2871 44.7356 31.2298C44.7635 31.1993 44.7909 31.1673 44.8193 31.1376C45.7273 30.1847 46.8364 29.6217 48.0268 29.5097C48.0916 29.5021 48.1739 29.4965 48.2575 29.4965L48.284 29.4949C48.2336 29.1183 48.1783 28.7507 48.1174 28.395C47.2112 27.4138 46.6563 26.1041 46.6563 24.6669C46.6563 24.3365 46.6872 24.0133 46.7435 23.6987C46.2218 22.58 45.5942 21.6731 44.8595 20.9833C43.5557 19.7592 42.2821 19.5486 41.628 19.5333C41.5906 19.531 41.5534 19.5277 41.5153 19.5277H32.538C32.4989 19.5277 32.4606 19.5312 32.4218 19.5336C31.7668 19.5498 30.495 19.7613 29.1936 20.9833C26.6181 23.4013 25.3505 28.4735 25.4102 36.0819Z"
            fill="#002E58" />
        <path
            d="M37.0267 18.2046C39.9142 18.2046 42.2549 15.8657 42.2549 12.9805C42.2549 10.0953 39.9142 7.75635 37.0267 7.75635C34.1393 7.75635 31.7986 10.0953 31.7986 12.9805C31.7986 15.8657 34.1393 18.2046 37.0267 18.2046Z"
            fill="#002E58" />
        <path
            d="M65.885 48.9888V60.4726C65.885 61.7549 66.9258 62.7944 68.2086 62.7944C69.492 62.7944 70.5323 61.7549 70.5323 60.4726V48.5621C69.2162 48.7982 67.6649 48.967 65.885 48.9888ZM65.1103 48.9888C63.3304 48.967 61.7792 48.798 60.4631 48.5618V60.4724C60.4631 61.7547 61.5043 62.7942 62.7867 62.7942C64.0703 62.7942 65.1103 61.7547 65.1103 60.4724V48.9888ZM58.2066 46.4478V47.3143C58.5242 47.4084 58.8688 47.5015 59.2397 47.5911C58.7733 47.3431 58.406 46.937 58.2066 46.4478ZM54.8002 29.4966H55.6511C55.7192 29.4903 55.7879 29.4866 55.8574 29.4866C55.9148 29.4866 55.9715 29.4901 56.0284 29.4943L56.0689 29.4966C56.1523 29.4966 56.2343 29.5022 56.3156 29.5115C56.7318 29.5505 57.1391 29.6492 57.5327 29.7991C58.1573 28.41 58.8082 27.3756 59.4195 26.6069L58.6474 30.3984C58.9488 30.6109 59.2376 30.8549 59.5071 31.1377C61.8454 33.5926 62.8966 38.6328 62.5467 45.7134C62.4897 46.8653 61.5768 47.7754 60.441 47.8474C61.8442 48.1088 63.5319 48.296 65.4977 48.296C72.0782 48.296 75.5666 46.2063 75.5666 46.2063L71.5777 26.6162C73.1772 28.6378 75.0566 32.4832 76.0151 39.7466C76.1155 40.506 76.7645 41.0586 77.5108 41.0586C77.5766 41.0586 77.643 41.0542 77.7099 41.0454C78.5372 40.9365 79.1188 40.1782 79.01 39.3518C76.9155 23.4812 70.4863 21.6519 69.288 21.4482C68.8897 21.3486 67.2065 20.9551 65.4974 20.9551C63.7886 20.9551 62.1052 21.3486 61.7069 21.4482C61.1522 21.5425 59.4769 21.9862 57.6296 24.008C57.6557 24.2242 57.6705 24.4439 57.6705 24.667C57.6705 26.7473 56.5089 28.5614 54.8002 29.4966Z"
            fill="#002E58" />
        <path
            d="M65.4974 19.9121C68.2565 19.9121 70.4932 17.6771 70.4932 14.9202C70.4932 12.1632 68.2565 9.92822 65.4974 9.92822C62.7383 9.92822 60.5016 12.1632 60.5016 14.9202C60.5016 17.6771 62.7383 19.9121 65.4974 19.9121Z"
            fill="#002E58" />
        <path
            d="M46.8636 34.7566V43.638H57.463V34.7566C58.1968 36.2124 59.0944 39.3037 58.7868 45.5275C58.7457 46.3599 59.3877 47.0683 60.2209 47.1094C60.2463 47.1106 60.2716 47.1113 60.2965 47.1113C61.0965 47.1113 61.7638 46.4837 61.8038 45.6766C62.1435 38.804 61.1629 33.9537 58.9685 31.6498C58.1796 30.8218 57.2393 30.3442 56.2299 30.2495C56.1769 30.2434 56.1232 30.2395 56.0686 30.2395H56.0428C55.9808 30.2367 55.9197 30.2295 55.8572 30.2295C55.8 30.2295 55.744 30.2332 55.6885 30.2395H48.6374C48.5819 30.2334 48.5259 30.2295 48.4687 30.2295C48.4062 30.2295 48.3451 30.2365 48.2831 30.2395H48.2571C48.2024 30.2395 48.1488 30.2434 48.096 30.2495C47.0869 30.3442 46.1463 30.8218 45.3576 31.6498C43.1632 33.9535 42.1826 38.804 42.5223 45.6766C42.5623 46.4837 43.2297 47.1113 44.0297 47.1113C44.0545 47.1113 44.0801 47.1108 44.1052 47.1094C44.9384 47.0683 45.5805 46.3599 45.5393 45.5275C45.2319 39.3037 46.1298 36.2124 46.8636 34.7566Z"
            fill="#002E58" />
        <path
            d="M57.463 44.335H46.8636V60.3946C46.8636 61.7247 47.9431 62.8035 49.275 62.8035C50.6058 62.8035 51.6853 61.7247 51.6853 60.3946V48.921H52.641V60.3946C52.641 61.7247 53.7206 62.8035 55.0523 62.8035C56.3835 62.8035 57.463 61.7247 57.463 60.3946V44.335Z"
            fill="#002E58" />
        <path
            d="M52.1633 29.4267C54.7941 29.4267 56.9267 27.2957 56.9267 24.667C56.9267 22.0382 54.7941 19.9072 52.1633 19.9072C49.5325 19.9072 47.3999 22.0382 47.3999 24.667C47.3999 27.2957 49.5325 29.4267 52.1633 29.4267Z"
            fill="#002E58" />
        <path
            d="M96.6603 53.7274C95.1936 53.6824 93.9254 53.4908 92.8807 53.2517V60.8564C92.8807 61.8991 93.7267 62.7449 94.7705 62.7449C95.8142 62.7449 96.6603 61.8991 96.6603 60.8564V53.7274ZM97.9687 53.7274V60.8561C97.9687 61.8989 98.8152 62.7447 99.859 62.7447C100.902 62.7447 101.749 61.8989 101.749 60.8561V53.2515C100.704 53.4908 99.4356 53.6824 97.9687 53.7274Z"
            fill="#002E58" />
        <path
            d="M97.3146 31.0822C99.8812 31.0822 101.962 29.0032 101.962 26.4386C101.962 23.874 99.8812 21.7949 97.3146 21.7949C94.748 21.7949 92.6674 23.874 92.6674 26.4386C92.6674 29.0032 94.748 31.0822 97.3146 31.0822Z"
            fill="#002E58" />
        <path
            d="M100.864 32.3072C100.48 32.1634 99.9322 32.0183 99.1656 31.925C98.6351 31.8391 97.9778 31.7627 97.3148 31.7627C96.6519 31.7627 95.9948 31.8391 95.4643 31.925C94.6956 32.0186 94.1468 32.1641 93.7632 32.3081C92.0444 32.9106 88.0159 35.4358 86.5929 45.9567C86.4942 46.6874 87.0068 47.3598 87.738 47.4585C88.472 47.5567 89.1424 47.0447 89.2412 46.3143C89.8163 42.0619 90.8191 39.3676 91.8192 37.6632C90.9088 41.8691 89.7821 47.8263 89.7821 51.5449C89.7821 51.5449 92.5863 53.1583 97.3151 53.1583C102.044 53.1583 104.848 51.5449 104.848 51.5449C104.848 47.826 103.721 41.8687 102.81 37.6627C103.811 39.3669 104.814 42.0614 105.389 46.3143C105.48 46.9844 106.053 47.4708 106.711 47.4706C106.771 47.4706 106.831 47.4666 106.892 47.4585C107.623 47.3598 108.136 46.6874 108.037 45.9567C106.613 35.4305 102.581 32.9081 100.864 32.3072ZM30.9147 54.7955C30.9286 54.7955 30.9426 54.7952 30.9567 54.7948C31.6301 54.772 32.1576 54.208 32.1346 53.5352C31.8832 46.1241 28.8708 44.6296 28.5281 44.4835C28.5265 44.4828 28.5246 44.4826 28.523 44.4819C28.3664 44.3621 28.1735 44.2883 27.9623 44.2883H27.5164C26.8095 44.7533 25.9654 45.0261 25.0577 45.0261C24.1501 45.0261 23.3057 44.7533 22.5991 44.2883H22.1534C21.9404 44.2883 21.7459 44.3637 21.5886 44.4856L21.5879 44.4838C21.2451 44.6298 18.233 46.1244 17.9814 53.5354C17.9584 54.208 18.4858 54.7722 19.1592 54.795C19.1734 54.7955 19.1873 54.7957 19.2013 54.7957C19.8558 54.7957 20.3972 54.2768 20.4198 53.6181C20.4953 51.3893 20.835 49.8544 21.224 48.8061V61.1032C21.224 62.0649 22.004 62.8445 22.9667 62.8445C23.9294 62.8445 24.7094 62.0649 24.7094 61.1032V55.531H25.4065V61.1032C25.4065 62.0649 26.1866 62.8445 27.1492 62.8445C28.1119 62.8445 28.892 62.0649 28.892 61.1032V48.7868C29.2791 49.8337 29.62 51.3742 29.6962 53.6181C29.7185 54.2768 30.2599 54.7955 30.9147 54.7955Z"
            fill="#002E58" />
        <path
            d="M25.058 44.0975C27.0213 44.0975 28.6129 42.5071 28.6129 40.5453C28.6129 38.5835 27.0213 36.9932 25.058 36.9932C23.0947 36.9932 21.5031 38.5835 21.5031 40.5453C21.5031 42.5071 23.0947 44.0975 25.058 44.0975Z"
            fill="#002E58" />
        <path
            d="M119.71 42.6735C119.73 42.6742 119.751 42.6744 119.771 42.6744C119.824 42.6744 119.876 42.6705 119.929 42.6665L121.657 32.8106C121.385 31.76 121.484 30.6105 122.029 29.5749C122.265 29.127 122.568 28.7384 122.916 28.4077C122.831 28.5368 122.751 28.6708 122.677 28.8103C121.466 31.1085 122.349 33.9518 124.648 35.1619C125.975 35.8596 127.481 35.8583 128.752 35.2938C127.396 36.3105 125.525 36.5255 123.925 35.6841C123.163 35.2829 122.567 34.6925 122.155 34.0036L118.423 55.2864C118.423 55.2864 122.952 58.1501 130.971 58.1501C135.126 58.1501 138.342 57.3809 140.479 56.6398V40.6113C140.372 40.9939 140.178 41.3503 139.906 41.6561C139.436 42.1843 138.788 42.498 138.081 42.5393C138.029 42.5423 137.977 42.544 137.925 42.544C136.525 42.5442 135.364 41.4494 135.282 40.0517C135.202 38.6818 135.159 37.3781 135.149 36.1366C134.442 36.0159 133.769 35.7289 133.19 35.2941C133.803 35.5664 134.47 35.7064 135.146 35.7004C135.138 29.1496 136.134 24.4388 138.119 21.638C136.647 20.6747 135.417 20.677 135.146 20.6912C135.098 20.6937 135.051 20.7004 135.003 20.7062C134.991 20.706 134.98 20.7044 134.968 20.7044H134.695C133.66 21.4926 132.369 21.9621 130.97 21.9621C129.571 21.9621 128.28 21.4926 127.245 20.7044H126.973C126.961 20.7044 126.949 20.706 126.938 20.7062C126.89 20.7004 126.843 20.6937 126.794 20.6912C126.464 20.6735 124.728 20.6707 122.857 22.3914C119.683 25.3095 117.94 31.4106 117.679 40.5251C117.646 41.6786 118.555 42.6405 119.71 42.6735ZM130.483 58.8413C128.344 58.8109 126.459 58.5852 124.846 58.2692L125.157 60.7599C125.157 61.9493 126.349 62.9133 127.82 62.9133C129.29 62.9133 130.483 61.9493 130.483 60.7599V58.8413ZM131.459 58.8413V60.7599C131.459 61.9493 132.652 62.9133 134.122 62.9133C135.593 62.9133 136.785 61.9493 136.785 60.7599L137.096 58.2692C135.483 58.5852 133.598 58.8109 131.459 58.8413Z"
            fill="#002E58" />
        <path
            d="M130.971 21.3811C134.051 21.3811 136.548 18.8863 136.548 15.8087C136.548 12.7312 134.051 10.2363 130.971 10.2363C127.891 10.2363 125.394 12.7312 125.394 15.8087C125.394 18.8863 127.891 21.3811 130.971 21.3811Z"
            fill="#002E58" />
        <path
            d="M136.072 40.0047C136.129 40.992 136.948 41.7538 137.926 41.7538C137.962 41.7538 137.999 41.7528 138.036 41.7505C139.061 41.6906 139.843 40.8118 139.783 39.7876C139.306 31.6287 140.231 27.2797 141.269 25.1211V59.9553C141.269 61.5411 142.556 62.8257 144.142 62.8257C145.729 62.8257 147.016 61.5411 147.016 59.9553V38.9959H148.093V59.9553C148.093 61.5411 149.379 62.8257 150.965 62.8257C152.552 62.8257 153.838 61.5411 153.838 59.9553V47.8495C152.682 47.7991 151.745 46.8804 151.688 45.7134C151.386 39.6042 152.128 35.0158 153.838 32.2944V25.1216C154.392 26.273 154.914 28.0478 155.208 30.6909C156.015 30.0109 156.946 29.6027 157.934 29.5098C157.999 29.5022 158.081 29.4966 158.165 29.4966L158.206 29.4943C158.263 29.4901 158.319 29.4866 158.377 29.4866C158.446 29.4866 158.515 29.4903 158.583 29.4966H158.811C158.791 29.3478 158.771 29.1987 158.75 29.0531C157.423 28.0475 156.564 26.4559 156.564 24.6672C156.564 24.048 156.668 23.4529 156.858 22.8968C156.427 22.139 155.937 21.5002 155.387 20.9834C154.083 19.7593 152.809 19.5487 152.155 19.5334C152.118 19.5311 152.081 19.5278 152.042 19.5278H143.065C143.026 19.5278 142.988 19.5313 142.949 19.5336C142.294 19.5499 141.022 19.7614 139.721 20.9834C136.725 23.7956 135.497 30.1955 136.072 40.0047Z"
            fill="#002E58" />
        <path
            d="M147.554 18.2046C150.441 18.2046 152.782 15.8657 152.782 12.9805C152.782 10.0953 150.441 7.75635 147.554 7.75635C144.666 7.75635 142.326 10.0953 142.326 12.9805C142.326 15.8657 144.666 18.2046 147.554 18.2046Z"
            fill="#002E58" />
        <path
            d="M186.747 19.5336C186.092 19.5499 184.82 19.7614 183.519 20.9834C180.523 23.796 179.295 30.1957 179.87 40.0052C179.927 40.9924 180.746 41.7542 181.724 41.7542C181.76 41.7542 181.797 41.7533 181.834 41.751C182.859 41.6911 183.641 40.8123 183.581 39.7881C183.104 31.6292 184.029 27.2802 185.068 25.1216V59.9557C185.068 61.5415 186.354 62.8262 187.94 62.8262C189.527 62.8262 190.814 61.5415 190.814 59.9557V38.9964H191.891V59.9557C191.891 61.5415 193.177 62.8262 194.763 62.8262C196.35 62.8262 197.636 61.5415 197.636 59.9557V55.4061C197.456 55.4616 197.265 55.492 197.066 55.492L197.002 55.4911C196.489 55.4737 196.014 55.2582 195.665 54.8844C195.315 54.5106 195.132 54.023 195.149 53.5115C195.309 48.7998 196.554 46.3326 197.636 45.0661V25.1218C198.598 27.1209 199.462 31.0004 199.205 38.0416C200.012 36.8496 201.377 36.0643 202.923 36.0643C202.938 36.0643 202.953 36.0664 202.968 36.0667C203.026 28.4669 201.759 23.3999 199.185 20.9834C197.881 19.7593 196.607 19.5487 195.953 19.5334C195.916 19.5311 195.879 19.5278 195.841 19.5278H186.863C186.824 19.5278 186.786 19.5311 186.747 19.5336Z"
            fill="#002E58" />
        <path
            d="M191.352 18.2046C194.239 18.2046 196.58 15.8657 196.58 12.9805C196.58 10.0953 194.239 7.75635 191.352 7.75635C188.464 7.75635 186.124 10.0953 186.124 12.9805C186.124 15.8657 188.464 18.2046 191.352 18.2046Z"
            fill="#002E58" />
        <path
            d="M156.771 44.335V60.3946C156.771 61.7247 157.851 62.8035 159.183 62.8035C160.513 62.8035 161.593 61.7247 161.593 60.3946V48.921H162.549V60.3946C162.549 61.7247 163.628 62.8035 164.96 62.8035C166.291 62.8035 167.371 61.7247 167.371 60.3946V44.335H156.771Z"
            fill="#002E58" />
        <path
            d="M170.204 47.1113C171.004 47.1113 171.671 46.4837 171.711 45.6766C172.051 38.804 171.07 33.9537 168.876 31.6498C168.087 30.8218 167.147 30.3442 166.137 30.2495C166.084 30.2434 166.031 30.2395 165.976 30.2395H165.95C165.888 30.2367 165.827 30.2295 165.765 30.2295C165.708 30.2295 165.652 30.2332 165.596 30.2395H158.545C158.489 30.2334 158.433 30.2295 158.376 30.2295C158.314 30.2295 158.253 30.2365 158.191 30.2395H158.165C158.11 30.2395 158.056 30.2434 158.004 30.2495C156.994 30.3442 156.054 30.8218 155.265 31.6498C153.071 33.9535 152.09 38.804 152.43 45.6766C152.47 46.4837 153.137 47.1113 153.937 47.1113C153.962 47.1113 153.988 47.1108 154.013 47.1094C154.846 47.0683 155.488 46.3599 155.447 45.5275C155.139 39.3034 156.037 36.2124 156.771 34.7564V43.6378H167.37V34.7564C168.104 36.2121 169.001 39.3034 168.694 45.5273C168.653 46.3597 169.295 47.0681 170.128 47.1092C170.154 47.1108 170.179 47.1113 170.204 47.1113Z"
            fill="#002E58" />
        <path
            d="M162.071 29.4267C164.702 29.4267 166.834 27.2957 166.834 24.667C166.834 22.0382 164.702 19.9072 162.071 19.9072C159.44 19.9072 157.307 22.0382 157.307 24.667C157.307 27.2957 159.44 29.4267 162.071 29.4267Z"
            fill="#002E58" />
        <path
            d="M205.381 44.2881C204.674 44.7531 203.83 45.026 202.923 45.026C202.015 45.026 201.171 44.7531 200.464 44.2881H200.018C199.805 44.2881 199.611 44.3635 199.453 44.4854L199.453 44.4836C199.11 44.6296 196.098 46.1242 195.846 53.5352C195.823 54.2079 196.351 54.7721 197.024 54.7948C197.038 54.7953 197.052 54.7955 197.066 54.7955C197.721 54.7955 198.262 54.2766 198.284 53.6179C198.36 51.3892 198.7 49.8542 199.089 48.8059V61.103C199.089 62.0647 199.869 62.8444 200.831 62.8444C201.794 62.8444 202.574 62.0647 202.574 61.103V55.5308H203.271V61.103C203.271 62.0647 204.051 62.8444 205.014 62.8444C205.977 62.8444 206.757 62.0647 206.757 61.103V48.7866C207.144 49.8335 207.485 51.3741 207.561 53.6179C207.583 54.2766 208.125 54.7955 208.779 54.7955C208.793 54.7955 208.807 54.7953 208.821 54.7948C209.495 54.7721 210.022 54.2081 209.999 53.5352C209.748 46.1242 206.736 44.6296 206.393 44.4836C206.391 44.4829 206.389 44.4827 206.388 44.482C206.231 44.3622 206.038 44.2883 205.827 44.2883H205.381V44.2881Z"
            fill="#002E58" />
        <path
            d="M202.923 44.0975C204.886 44.0975 206.478 42.5071 206.478 40.5453C206.478 38.5835 204.886 36.9932 202.923 36.9932C200.959 36.9932 199.368 38.5835 199.368 40.5453C199.368 42.5071 200.959 44.0975 202.923 44.0975Z"
            fill="#002E58" />
    </g>
    <defs>
        <clipPath id="clip0_493_45">
            <rect width="210" height="63" fill="white" />
        </clipPath>
    </defs>
</svg>
    