<svg width="26" height="26" viewBox="0 0 26 26" fill="none" xmlns="http://www.w3.org/2000/svg">
    <mask id="mask0_529_1282" style="mask-type:luminance" maskUnits="userSpaceOnUse" x="0" y="0"
        width="26" height="26">
        <path d="M0 0H26V26H0V0Z" fill="white" />
        <path
            d="M10.1719 17.2428C10.079 17.3357 9.96871 17.4094 9.84732 17.4597C9.72593 17.51 9.59582 17.5359 9.46442 17.5359C9.33303 17.5359 9.20292 17.51 9.08153 17.4597C8.96013 17.4094 8.84983 17.3357 8.75692 17.2428C8.66401 17.1499 8.59031 17.0396 8.54003 16.9182C8.48975 16.7968 8.46387 16.6667 8.46387 16.5353C8.46387 16.4039 8.48975 16.2738 8.54003 16.1524C8.59031 16.031 8.66401 15.9207 8.75692 15.8278L15.8279 8.7578C15.9208 8.66489 16.031 8.59118 16.1523 8.54087C16.2737 8.49056 16.4037 8.46465 16.5351 8.4646C16.6664 8.46455 16.7965 8.49038 16.9179 8.5406C17.0392 8.59082 17.1495 8.66446 17.2424 8.7573C17.3353 8.85015 17.409 8.96038 17.4594 9.08171C17.5097 9.20305 17.5356 9.3331 17.5356 9.46445C17.5357 9.5958 17.5098 9.72587 17.4596 9.84724C17.4094 9.9686 17.3358 10.0789 17.2429 10.1718L10.1719 17.2428Z"
            fill="black" />
        <path
            d="M8.75692 10.1719C8.56928 9.98428 8.46387 9.72979 8.46387 9.46442C8.46387 9.19906 8.56928 8.94456 8.75692 8.75692C8.94456 8.56928 9.19906 8.46387 9.46442 8.46387C9.72979 8.46387 9.98428 8.56928 10.1719 8.75692L17.2419 15.8279C17.3348 15.9208 17.4085 16.031 17.4589 16.1523C17.5092 16.2737 17.5351 16.4037 17.5351 16.5351C17.5352 16.6664 17.5093 16.7965 17.4591 16.9179C17.4089 17.0392 17.3353 17.1495 17.2424 17.2424C17.1496 17.3353 17.0393 17.409 16.918 17.4594C16.7967 17.5097 16.6666 17.5356 16.5353 17.5356C16.4039 17.5357 16.2739 17.5098 16.1525 17.4596C16.0311 17.4094 15.9208 17.3358 15.8279 17.2429L8.75692 10.1719Z"
            fill="black" />
    </mask>
    <g mask="url(#mask0_529_1282)">
        <path
            d="M13 26C20.1797 26 26 20.1797 26 13C26 5.8203 20.1797 0 13 0C5.8203 0 0 5.8203 0 13C0 20.1797 5.8203 26 13 26Z"
            fill="#FF0000" />
    </g>
</svg>
    