<svg width="196" height="185" viewBox="0 0 196 185" fill="none" xmlns="http://www.w3.org/2000/svg">
    <path
        d="M125.25 166.5H153C157.907 166.5 162.612 164.551 166.081 161.081C169.551 157.612 171.5 152.907 171.5 148V120.25C171.5 117.797 172.475 115.444 174.209 113.709C175.944 111.975 178.297 111 180.75 111C183.203 111 185.556 111.975 187.291 113.709C189.025 115.444 190 117.797 190 120.25V148C190 157.813 186.102 167.224 179.163 174.163C172.224 181.102 162.813 185 153 185H42C32.187 185 22.7759 181.102 15.8371 174.163C8.8982 167.224 5 157.813 5 148V120.25C5 117.797 5.97455 115.444 7.70926 113.709C9.44397 111.975 11.7967 111 14.25 111C16.7033 111 19.056 111.975 20.7907 113.709C22.5254 115.444 23.5 117.797 23.5 120.25V148C23.5 152.907 25.4491 157.612 28.9185 161.081C32.3879 164.551 37.0935 166.5 42 166.5H69.75C72.2033 166.5 74.556 167.475 76.2907 169.209C78.0255 170.944 79 173.297 79 175.75C79 178.203 78.0255 180.556 76.2907 182.291C74.556 184.025 72.2033 185 69.75 185H125.25C122.797 185 120.444 184.025 118.709 182.291C116.975 180.556 116 178.203 116 175.75C116 173.297 116.975 170.944 118.709 169.209C120.444 167.475 122.797 166.5 125.25 166.5ZM23.5 64.75C23.5 67.2033 22.5254 69.556 20.7907 71.2907C19.056 73.0255 16.7033 74 14.25 74C11.7967 74 9.44397 73.0255 7.70926 71.2907C5.97455 69.556 5 67.2033 5 64.75V37C5 27.187 8.8982 17.7759 15.8371 10.8371C22.7759 3.8982 32.187 0 42 0L69.75 0C72.2033 0 74.556 0.974551 76.2907 2.70926C78.0255 4.44397 79 6.79675 79 9.25C79 11.7033 78.0255 14.056 76.2907 15.7907C74.556 17.5254 72.2033 18.5 69.75 18.5H42C37.0935 18.5 32.3879 20.4491 28.9185 23.9185C25.4491 27.3879 23.5 32.0935 23.5 37V64.75ZM171.5 64.75V37C171.5 32.0935 169.551 27.3879 166.081 23.9185C162.612 20.4491 157.907 18.5 153 18.5H125.25C122.797 18.5 120.444 17.5254 118.709 15.7907C116.975 14.056 116 11.7033 116 9.25C116 6.79675 116.975 4.44397 118.709 2.70926C120.444 0.974551 122.797 0 125.25 0L153 0C162.813 0 172.224 3.8982 179.163 10.8371C186.102 17.7759 190 27.187 190 37V64.75C190 67.2033 189.025 69.556 187.291 71.2907C185.556 73.0255 183.203 74 180.75 74C178.297 74 175.944 73.0255 174.209 71.2907C172.475 69.556 171.5 67.2033 171.5 64.75Z"
        fill="#002E58" />
    <path
        d="M114.224 141.636H103.42V130.832H114.224V141.636ZM103.42 103.822H92.616V130.832H103.42V103.822ZM146.636 93.0179H135.832V114.626H146.636V93.0179ZM135.832 82.2139H125.028V93.0179H135.832V82.2139ZM71.008 93.0179H60.204V103.822H71.008V93.0179ZM60.204 82.2139H49.4V93.0179H60.204V82.2139ZM98.018 55.2039H108.822V44.3999H98.018V55.2039ZM57.503 52.5029V68.7089H73.709V52.5029H57.503ZM76.41 76.8119H54.802C51.8309 76.8119 49.4 74.381 49.4 71.4099V49.8019C49.4 46.8308 51.8309 44.3999 54.802 44.3999H76.41C79.3811 44.3999 81.812 46.8308 81.812 49.8019V71.4099C81.812 74.381 79.3811 76.8119 76.41 76.8119ZM57.503 117.327V133.533H73.709V117.327H57.503ZM76.41 141.636H54.802C51.8309 141.636 49.4 139.205 49.4 136.234V114.626C49.4 111.655 51.8309 109.224 54.802 109.224H76.41C79.3811 109.224 81.812 111.655 81.812 114.626V136.234C81.812 139.205 79.3811 141.636 76.41 141.636ZM122.327 52.5029V68.7089H138.533V52.5029H122.327ZM141.234 76.8119H119.626C116.655 76.8119 114.224 74.381 114.224 71.4099V49.8019C114.224 46.8308 116.655 44.3999 119.626 44.3999H141.234C144.205 44.3999 146.636 46.8308 146.636 49.8019V71.4099C146.636 74.381 144.205 76.8119 141.234 76.8119ZM135.832 130.832V114.626H114.224V125.43H125.028V141.636H146.636V130.832H135.832ZM125.028 93.0179H103.42V103.822H125.028V93.0179ZM103.42 82.2139H71.008V93.0179H81.812V103.822H92.616V93.0179H103.42V82.2139ZM108.822 76.8119V66.0079H98.018V55.2039H87.214V76.8119H108.822ZM69.6575 56.5544H61.5545V64.6574H69.6575V56.5544ZM69.6575 121.378H61.5545V129.481H69.6575V121.378ZM134.482 56.5544H126.379V64.6574H134.482V56.5544Z"
        fill="black" />
    <g filter="url(#filter0_d_217_1878)">
        <path d="M6.776 88.8L189.704 88.8001" stroke="black" stroke-width="4" stroke-linecap="round" />
    </g>
    <defs>
        <filter id="filter0_d_217_1878" x="0.776001" y="86.8" width="194.928" height="12"
            filterUnits="userSpaceOnUse" color-interpolation-filters="sRGB">
            <feFlood flood-opacity="0" result="BackgroundImageFix" />
            <feColorMatrix in="SourceAlpha" type="matrix"
                values="0 0 0 0 0 0 0 0 0 0 0 0 0 0 0 0 0 0 127 0" result="hardAlpha" />
            <feOffset dy="4" />
            <feGaussianBlur stdDeviation="2" />
            <feComposite in2="hardAlpha" operator="out" />
            <feColorMatrix type="matrix" values="0 0 0 0 0 0 0 0 0 0 0 0 0 0 0 0 0 0 0.25 0" />
            <feBlend mode="normal" in2="BackgroundImageFix" result="effect1_dropShadow_217_1878" />
            <feBlend mode="normal" in="SourceGraphic" in2="effect1_dropShadow_217_1878"
                result="shape" />
        </filter>
    </defs>
</svg>
    