<svg width="54" height="54" viewBox="0 0 54 54" fill="none" xmlns="http://www.w3.org/2000/svg">
    <path fill-rule="evenodd" clip-rule="evenodd"
        d="M0 27C0 19.8392 2.84463 12.9716 7.90812 7.90812C12.9716 2.84463 19.8392 0 27 0C34.1608 0 41.0284 2.84463 46.0919 7.90812C51.1554 12.9716 54 19.8392 54 27C54 34.1608 51.1554 41.0284 46.0919 46.0919C41.0284 51.1554 34.1608 54 27 54C19.8392 54 12.9716 51.1554 7.90812 46.0919C2.84463 41.0284 0 34.1608 0 27ZM25.4592 38.556L41.004 19.1232L38.196 16.8768L24.9408 33.4404L15.552 25.6176L13.248 28.3824L25.4592 38.556Z"
        fill="#002E58" />
</svg>
    