<svg width="19" height="14" viewBox="0 0 19 14" fill="none" xmlns="http://www.w3.org/2000/svg">
    <g clip-path="url(#clip0_0_1)">
        <path fill-rule="evenodd" clip-rule="evenodd"
            d="M12.5684 2.98158C12.7325 3.14566 12.8246 3.36818 12.8246 3.6002C12.8246 3.83222 12.7325 4.05474 12.5684 4.21883L6.01002 10.7772C5.92335 10.8639 5.82045 10.9327 5.7072 10.9796C5.59395 11.0265 5.47256 11.0507 5.34998 11.0507C5.22739 11.0507 5.10601 11.0265 4.99275 10.9796C4.8795 10.9327 4.7766 10.8639 4.68993 10.7772L1.43143 7.51933C1.34786 7.43861 1.2812 7.34206 1.23535 7.23531C1.18949 7.12855 1.16535 7.01374 1.16434 6.89755C1.16333 6.78137 1.18547 6.66615 1.22946 6.55862C1.27346 6.45108 1.33843 6.35339 1.42059 6.27123C1.50274 6.18908 1.60044 6.1241 1.70797 6.08011C1.81551 6.03611 1.93073 6.01397 2.04691 6.01498C2.16309 6.01599 2.27791 6.04013 2.38466 6.08599C2.49142 6.13185 2.58797 6.19851 2.66868 6.28208L5.34968 8.96308L11.3306 2.98158C11.4119 2.90027 11.5083 2.83576 11.6145 2.79176C11.7207 2.74775 11.8346 2.7251 11.9495 2.7251C12.0645 2.7251 12.1783 2.74775 12.2845 2.79176C12.3907 2.83576 12.4872 2.90027 12.5684 2.98158Z"
            fill="#0085FF" />
    </g>
    <g clip-path="url(#clip1_0_1)">
        <path fill-rule="evenodd" clip-rule="evenodd"
            d="M17.5684 2.98158C17.7325 3.14566 17.8246 3.36818 17.8246 3.6002C17.8246 3.83222 17.7325 4.05474 17.5684 4.21883L11.01 10.7772C10.9233 10.8639 10.8204 10.9327 10.7072 10.9796C10.5939 11.0265 10.4726 11.0507 10.35 11.0507C10.2274 11.0507 10.106 11.0265 9.99275 10.9796C9.8795 10.9327 9.7766 10.8639 9.68993 10.7772L6.43143 7.51933C6.34786 7.43861 6.2812 7.34206 6.23535 7.23531C6.18949 7.12855 6.16535 7.01374 6.16434 6.89755C6.16333 6.78137 6.18547 6.66615 6.22946 6.55862C6.27346 6.45108 6.33843 6.35339 6.42059 6.27123C6.50274 6.18908 6.60044 6.1241 6.70797 6.08011C6.81551 6.03611 6.93073 6.01397 7.04691 6.01498C7.16309 6.01599 7.27791 6.04013 7.38466 6.08599C7.49142 6.13185 7.58797 6.19851 7.66868 6.28208L10.3497 8.96308L16.3306 2.98158C16.4119 2.90027 16.5083 2.83576 16.6145 2.79176C16.7207 2.74775 16.8346 2.7251 16.9495 2.7251C17.0645 2.7251 17.1783 2.74775 17.2845 2.79176C17.3907 2.83576 17.4872 2.90027 17.5684 2.98158Z"
            fill="#0085FF" />
    </g>
    <defs>
        <clipPath id="clip0_0_1">
            <rect width="14" height="14" fill="white" />
        </clipPath>
        <clipPath id="clip1_0_1">
            <rect width="14" height="14" fill="white" transform="translate(5)" />
        </clipPath>
    </defs>
</svg>
    