<svg width="12" height="10" viewBox="0 0 12 10" fill="none" xmlns="http://www.w3.org/2000/svg">
    <path fill-rule="evenodd" clip-rule="evenodd"
        d="M11.5684 0.981577C11.7325 1.14566 11.8246 1.36818 11.8246 1.6002C11.8246 1.83222 11.7325 2.05474 11.5684 2.21883L5.01002 8.77725C4.92335 8.86394 4.82045 8.9327 4.7072 8.97962C4.59395 9.02654 4.47256 9.05069 4.34998 9.05069C4.22739 9.05069 4.10601 9.02654 3.99275 8.97962C3.8795 8.9327 3.7766 8.86394 3.68993 8.77725L0.431434 5.51933C0.347862 5.43861 0.281203 5.34206 0.235345 5.23531C0.189487 5.12855 0.165349 5.01374 0.16434 4.89755C0.16333 4.78137 0.185469 4.66615 0.229465 4.55862C0.273461 4.45108 0.338432 4.35339 0.420588 4.27123C0.502744 4.18908 0.60044 4.1241 0.707974 4.08011C0.815508 4.03611 0.930728 4.01397 1.04691 4.01498C1.16309 4.01599 1.27791 4.04013 1.38466 4.08599C1.49142 4.13185 1.58797 4.19851 1.66868 4.28208L4.34968 6.96308L10.3306 0.981577C10.4119 0.900267 10.5083 0.835765 10.6145 0.791757C10.7207 0.747749 10.8346 0.725098 10.9495 0.725098C11.0645 0.725098 11.1783 0.747749 11.2845 0.791757C11.3907 0.835765 11.4872 0.900267 11.5684 0.981577Z"
        fill="#B3B3B3" />
</svg>
    