<svg width="20" height="20" viewBox="0 0 20 20" fill="none" xmlns="http://www.w3.org/2000/svg">
    <path
        d="M8.74999 13.7487C8.74999 13.4172 8.88169 13.0992 9.11611 12.8648C9.35053 12.6304 9.66847 12.4987 9.99999 12.4987C10.3315 12.4987 10.6495 12.6304 10.8839 12.8648C11.1183 13.0992 11.25 13.4172 11.25 13.7487C11.25 14.0802 11.1183 14.3981 10.8839 14.6326C10.6495 14.867 10.3315 14.9987 9.99999 14.9987C9.66847 14.9987 9.35053 14.867 9.11611 14.6326C8.88169 14.3981 8.74999 14.0802 8.74999 13.7487ZM8.87374 6.24243C8.8571 6.08473 8.87379 5.9253 8.92274 5.77447C8.97169 5.62364 9.05181 5.48478 9.15789 5.36692C9.26397 5.24905 9.39365 5.1548 9.53851 5.09028C9.68336 5.02577 9.84017 4.99243 9.99874 4.99243C10.1573 4.99243 10.3141 5.02577 10.459 5.09028C10.6038 5.1548 10.7335 5.24905 10.8396 5.36692C10.9457 5.48478 11.0258 5.62364 11.0747 5.77447C11.1237 5.9253 11.1404 6.08473 11.1237 6.24243L10.6862 10.6262C10.6685 10.7961 10.5884 10.9535 10.4614 11.0679C10.3344 11.1822 10.1696 11.2455 9.99874 11.2455C9.82786 11.2455 9.66304 11.1822 9.53608 11.0679C9.40911 10.9535 9.32902 10.7961 9.31124 10.6262L8.87374 6.24243Z"
        fill="#565656" />
    <path
        d="M12.8402 3.14024L11.689 1.96024L12.5827 1.08774L13.3602 1.88399L14.4727 1.87024C14.9543 1.86454 15.4321 1.95519 15.8782 2.13685C16.3242 2.31852 16.7294 2.58753 17.0699 2.92807C17.4105 3.26861 17.6795 3.6738 17.8611 4.11982C18.0428 4.56584 18.1334 5.04368 18.1277 5.52524L18.1152 6.63774L18.9102 7.41524C19.2546 7.75171 19.5282 8.1536 19.715 8.5973C19.9018 9.04101 19.998 9.51757 19.998 9.99899C19.998 10.4804 19.9018 10.957 19.715 11.4007C19.5282 11.8444 19.2546 12.2463 18.9102 12.5827L18.114 13.3602L18.1277 14.4727C18.1334 14.9543 18.0428 15.4321 17.8611 15.8782C17.6795 16.3242 17.4105 16.7294 17.0699 17.0699C16.7294 17.4105 16.3242 17.6795 15.8782 17.8611C15.4321 18.0428 14.9543 18.1334 14.4727 18.1277L13.3602 18.1152L12.5827 18.9102C12.2463 19.2546 11.8444 19.5282 11.4007 19.715C10.957 19.9018 10.4804 19.998 9.99899 19.998C9.51757 19.998 9.04101 19.9018 8.5973 19.715C8.1536 19.5282 7.75171 19.2546 7.41524 18.9102L6.63774 18.114L5.52524 18.1277C5.04368 18.1334 4.56584 18.0428 4.11982 17.8611C3.6738 17.6795 3.26861 17.4105 2.92807 17.0699C2.58753 16.7294 2.31852 16.3242 2.13685 15.8782C1.95519 15.4321 1.86454 14.9543 1.87024 14.4727L1.88274 13.3602L1.08774 12.5827C0.74342 12.2463 0.46982 11.8444 0.283023 11.4007C0.0962258 10.957 0 10.4804 0 9.99899C0 9.51757 0.0962258 9.04101 0.283023 8.5973C0.46982 8.1536 0.74342 7.75171 1.08774 7.41524L1.88399 6.63774L1.87024 5.52524C1.86454 5.04368 1.95519 4.56584 2.13685 4.11982C2.31852 3.6738 2.58753 3.26861 2.92807 2.92807C3.26861 2.58753 3.6738 2.31852 4.11982 2.13685C4.56584 1.95519 5.04368 1.86454 5.52524 1.87024L6.63774 1.88274L7.41524 1.08774C7.75171 0.74342 8.1536 0.46982 8.5973 0.283023C9.04101 0.0962258 9.51757 0 9.99899 0C10.4804 0 10.957 0.0962258 11.4007 0.283023C11.8444 0.46982 12.2463 0.74342 12.5827 1.08774L11.689 1.96024C11.4689 1.73498 11.2061 1.55598 10.9159 1.43376C10.6256 1.31155 10.3139 1.24859 9.99899 1.24859C9.68409 1.24859 9.37236 1.31155 9.08213 1.43376C8.79191 1.55598 8.52904 1.73498 8.30899 1.96024L7.15899 3.14024L5.50899 3.12024C5.19422 3.11672 4.88191 3.17615 4.59042 3.29503C4.29893 3.41391 4.03414 3.58984 3.81161 3.81249C3.58907 4.03515 3.41327 4.30003 3.29455 4.59158C3.17582 4.88313 3.11656 5.19547 3.12024 5.51024L3.14024 7.15774L1.96024 8.30899C1.73498 8.52904 1.55598 8.79191 1.43376 9.08213C1.31155 9.37236 1.24859 9.68409 1.24859 9.99899C1.24859 10.3139 1.31155 10.6256 1.43376 10.9159C1.55598 11.2061 1.73498 11.4689 1.96024 11.689L3.14024 12.839L3.12024 14.489C3.11672 14.8038 3.17615 15.1161 3.29503 15.4076C3.41391 15.6991 3.58984 15.9638 3.81249 16.1864C4.03515 16.4089 4.30003 16.5847 4.59158 16.7034C4.88313 16.8222 5.19547 16.8814 5.51024 16.8777L7.15774 16.8577L8.30899 18.0377C8.52904 18.263 8.79191 18.442 9.08213 18.5642C9.37236 18.6864 9.68409 18.7494 9.99899 18.7494C10.3139 18.7494 10.6256 18.6864 10.9159 18.5642C11.2061 18.442 11.4689 18.263 11.689 18.0377L12.839 16.8577L14.489 16.8777C14.8038 16.8813 15.1161 16.8218 15.4076 16.703C15.6991 16.5841 15.9638 16.4081 16.1864 16.1855C16.4089 15.9628 16.5847 15.698 16.7034 15.4064C16.8222 15.1149 16.8814 14.8025 16.8777 14.4877L16.8577 12.8402L18.0377 11.689C18.263 11.4689 18.442 11.2061 18.5642 10.9159C18.6864 10.6256 18.7494 10.3139 18.7494 9.99899C18.7494 9.68409 18.6864 9.37236 18.5642 9.08213C18.442 8.79191 18.263 8.52904 18.0377 8.30899L16.8577 7.15899L16.8777 5.50899C16.8813 5.19422 16.8218 4.88191 16.703 4.59042C16.5841 4.29893 16.4081 4.03414 16.1855 3.81161C15.9628 3.58907 15.698 3.41327 15.4064 3.29455C15.1149 3.17582 14.8025 3.11656 14.4877 3.12024L12.8402 3.14024Z"
        fill="#565656" />
</svg>
    