<svg width="15" height="15" viewBox="0 0 15 15" fill="none" xmlns="http://www.w3.org/2000/svg">
    <path
        d="M7.5 0.59375C6.13408 0.59375 4.79882 0.998795 3.6631 1.75766C2.52737 2.51653 1.64218 3.59514 1.11946 4.85709C0.596742 6.11904 0.459976 7.50766 0.726455 8.84734C0.992934 10.187 1.65069 11.4176 2.61655 12.3835C3.5824 13.3493 4.81298 14.0071 6.15266 14.2735C7.49234 14.54 8.88096 14.4033 10.1429 13.8805C11.4049 13.3578 12.4835 12.4726 13.2423 11.3369C14.0012 10.2012 14.4063 8.86593 14.4063 7.5C14.4043 5.66894 13.6761 3.91343 12.3813 2.61868C11.0866 1.32393 9.33106 0.595684 7.5 0.59375ZM7.5 13.3438C6.34422 13.3438 5.21439 13.001 4.25339 12.3589C3.29239 11.7168 2.54338 10.8041 2.10108 9.73631C1.65878 8.6685 1.54306 7.49352 1.76854 6.35994C1.99402 5.22636 2.55058 4.18511 3.36785 3.36784C4.18511 2.55058 5.22637 1.99402 6.35994 1.76854C7.49352 1.54305 8.6685 1.65878 9.73631 2.10108C10.8041 2.54338 11.7168 3.29239 12.3589 4.25339C13.001 5.21439 13.3438 6.34422 13.3438 7.5C13.342 9.04932 12.7258 10.5347 11.6302 11.6302C10.5347 12.7257 9.04932 13.342 7.5 13.3438Z"
        fill="#898989" />
</svg>
    