<svg width="12" height="10" viewBox="0 0 12 10" fill="none" xmlns="http://www.w3.org/2000/svg">
    <path opacity="0.2" fill-rule="evenodd" clip-rule="evenodd"
        d="M1.132 0.476833C0.860563 0.767648 0.715763 1.15438 0.729453 1.55195C0.743143 1.94952 0.914202 2.32538 1.205 2.59683L3.78 4.99983L1.205 7.40283C0.914059 7.67428 0.742865 8.05019 0.729081 8.44786C0.715297 8.84553 0.860052 9.23239 1.1315 9.52333C1.40295 9.81427 1.77886 9.98547 2.17653 9.99925C2.5742 10.013 2.96106 9.86828 3.252 9.59683L5.979 7.05183L8.705 9.59683C8.84906 9.73124 9.01818 9.83596 9.20271 9.905C9.38724 9.97405 9.58357 10.0061 9.78047 9.99925C9.97738 9.99243 10.171 9.94689 10.3503 9.86523C10.5296 9.78357 10.6911 9.66739 10.8255 9.52333C10.9599 9.37927 11.0646 9.21015 11.1337 9.02562C11.2027 8.84109 11.2347 8.64477 11.2279 8.44786C11.2211 8.25095 11.1756 8.05732 11.0939 7.87801C11.0122 7.69871 10.8961 7.53724 10.752 7.40283L8.177 4.99983L10.752 2.59683C10.8961 2.46242 11.0122 2.30096 11.0939 2.12165C11.1756 1.94235 11.2211 1.74871 11.2279 1.5518C11.2347 1.3549 11.2027 1.15858 11.1337 0.974046C11.0646 0.789516 10.9599 0.620393 10.8255 0.476332C10.6911 0.332272 10.5296 0.216096 10.3503 0.134438C10.171 0.0527793 9.97738 0.00723732 9.78047 0.000412213C9.58357 -0.00641289 9.38724 0.0256127 9.20271 0.09466C9.01818 0.163707 8.84906 0.268424 8.705 0.402832L5.98 2.94783L3.252 0.402832C2.96106 0.131521 2.57425 -0.013103 2.17668 0.00077461C1.7791 0.0146522 1.40332 0.185895 1.132 0.476833Z"
        fill="black" />
    <path
        d="M1.854 7.8539C1.76011 7.94779 1.63277 8.00053 1.5 8.00053C1.36722 8.00053 1.23989 7.94779 1.146 7.8539C1.05211 7.76001 0.999367 7.63268 0.999367 7.4999C0.999367 7.36712 1.05211 7.23979 1.146 7.1459L8.146 0.145899C8.23989 0.0520127 8.36722 -0.000732423 8.5 -0.000732422C8.63277 -0.000732421 8.76011 0.0520127 8.854 0.145899C8.94789 0.239786 9.00063 0.367124 9.00063 0.499899C9.00063 0.632675 8.94789 0.760013 8.854 0.853899L1.854 7.8539Z"
        fill="black" />
    <path
        d="M1.146 0.853899C1.09951 0.807412 1.06263 0.752222 1.03748 0.691483C1.01232 0.630744 0.999367 0.565643 0.999367 0.499899C0.999367 0.434156 1.01232 0.369055 1.03748 0.308316C1.06263 0.247576 1.09951 0.192387 1.146 0.145899C1.19249 0.0994114 1.24768 0.062535 1.30841 0.0373759C1.36915 0.0122168 1.43425 -0.000732423 1.5 -0.000732422C1.56574 -0.000732421 1.63084 0.0122168 1.69158 0.0373759C1.75232 0.062535 1.80751 0.0994114 1.854 0.145899L8.854 7.1459C8.94789 7.23979 9.00063 7.36712 9.00063 7.4999C9.00063 7.63268 8.94789 7.76001 8.854 7.8539C8.76011 7.94779 8.63277 8.00053 8.5 8.00053C8.36722 8.00053 8.23989 7.94779 8.146 7.8539L1.146 0.853899Z"
        fill="black" />
</svg>
    