<svg width="9" height="9" viewBox="0 0 9 9" fill="none" xmlns="http://www.w3.org/2000/svg">
    <path
        d="M6.95562 0.0865416C6.85142 0.0847425 6.74793 0.103919 6.65129 0.142929C6.55466 0.181939 6.46686 0.239987 6.39312 0.313619L6.04696 0.670503L8.32915 2.96377L8.67531 2.60723C8.74998 2.53268 8.80921 2.44413 8.84963 2.34666C8.89004 2.24919 8.91084 2.14471 8.91084 2.0392C8.91084 1.93368 8.89004 1.8292 8.84963 1.73173C8.80921 1.63426 8.74998 1.54571 8.67531 1.47116L7.52885 0.324349C7.37649 0.172762 7.17054 0.0873201 6.95562 0.0865416ZM5.65754 0.984465L5.1165 1.5037L7.49631 3.8835L8.04808 3.375L5.65754 0.984465ZM4.77 1.88239L1.02808 5.59212C0.985563 5.61388 0.948151 5.64442 0.918315 5.68171C0.888479 5.71901 0.866899 5.76221 0.855 5.80847L0.0540001 8.52404C0.0359147 8.5827 0.0341669 8.64517 0.0489448 8.70475C0.0637227 8.76432 0.0944667 8.81873 0.137868 8.86213C0.18127 8.90554 0.235685 8.93628 0.295259 8.95106C0.354832 8.96584 0.417308 8.96409 0.475962 8.946L3.19119 8.14535C3.25283 8.13615 3.31071 8.11006 3.35843 8.06998C3.40614 8.0299 3.44183 7.97739 3.46154 7.91827L7.15015 4.26185L6.642 3.7537L2.85577 7.55066L1.33062 7.99373L1.00592 7.66939L1.47115 6.0795L5.22485 2.33654L4.77 1.88239ZM5.59212 2.71523L1.7955 6.52293L2.34692 6.64166L2.42273 7.1505L6.23042 3.3532L5.59212 2.71523Z"
        fill="black" />
</svg>
    