<svg width="13" height="15" viewBox="0 0 13 15" fill="none" xmlns="http://www.w3.org/2000/svg">
    <path
        d="M0.833374 13.8752H12.1667M2.01346 8.34103C1.7113 8.64364 1.54163 9.05381 1.54171 9.48145V11.7502H3.82467C4.2525 11.7502 4.66262 11.5802 4.96508 11.2771L11.6942 4.54436C11.9965 4.2418 12.1663 3.83162 12.1663 3.40395C12.1663 2.97627 11.9965 2.56609 11.6942 2.26353L11.0298 1.5977C10.88 1.44778 10.7021 1.32887 10.5062 1.24776C10.3104 1.16665 10.1005 1.12493 9.88856 1.125C9.6766 1.12507 9.46673 1.16691 9.27095 1.24814C9.07518 1.32937 8.89733 1.44839 8.74758 1.5984L2.01346 8.34103Z"
        stroke="black" stroke-width="1.5" stroke-linecap="round" stroke-linejoin="round" />
</svg>