<svg width="17" height="17" viewBox="0 0 17 17" fill="none" xmlns="http://www.w3.org/2000/svg">
    <path
        d="M10.1657 6.82994L7.66574 9.32994L10.1657 6.82994ZM15.4057 1.02244C15.4848 0.995147 15.57 0.990657 15.6515 1.00948C15.733 1.0283 15.8076 1.06967 15.8667 1.12886C15.9258 1.18805 15.967 1.26268 15.9857 1.34422C16.0044 1.42575 15.9998 1.5109 15.9724 1.58994L11.0357 15.6983C11.0062 15.7826 10.952 15.8561 10.8802 15.9093C10.8083 15.9624 10.7222 15.9928 10.6329 15.9964C10.5436 16 10.4553 15.9766 10.3794 15.9294C10.3036 15.8822 10.2436 15.8133 10.2074 15.7316L7.52491 9.6966C7.4801 9.59602 7.39965 9.51558 7.29907 9.47077L1.26407 6.78744C1.18265 6.75108 1.114 6.69115 1.06699 6.61538C1.01998 6.53961 0.996772 6.45149 1.00036 6.36239C1.00395 6.2733 1.03417 6.18732 1.08712 6.11558C1.14008 6.04384 1.21332 5.98962 1.29741 5.95994L15.4057 1.02244Z"
        fill="#565656" />
    <path
        d="M10.1657 6.82994L7.66574 9.32994M15.4057 1.02244C15.4848 0.995147 15.57 0.990657 15.6515 1.00948C15.733 1.0283 15.8076 1.06967 15.8667 1.12886C15.9258 1.18805 15.967 1.26268 15.9857 1.34422C16.0044 1.42575 15.9998 1.5109 15.9724 1.58994L11.0357 15.6983C11.0062 15.7826 10.952 15.8561 10.8802 15.9093C10.8083 15.9624 10.7222 15.9928 10.6329 15.9964C10.5436 16 10.4553 15.9766 10.3794 15.9294C10.3036 15.8822 10.2436 15.8133 10.2074 15.7316L7.52491 9.6966C7.4801 9.59602 7.39965 9.51558 7.29907 9.47077L1.26407 6.78744C1.18265 6.75108 1.114 6.69115 1.06699 6.61538C1.01998 6.53961 0.996772 6.45149 1.00036 6.36239C1.00395 6.2733 1.03417 6.18732 1.08712 6.11558C1.14008 6.04384 1.21332 5.98962 1.29741 5.95994L15.4057 1.02244Z"
        stroke="#626262" stroke-width="1.5" stroke-linecap="round" stroke-linejoin="round" />
</svg>
    