<svg width="13" height="13" viewBox="0 0 13 13" fill="none" xmlns="http://www.w3.org/2000/svg">
    <path fill-rule="evenodd" clip-rule="evenodd"
        d="M0.875 1.8125C0.875 1.56386 0.973772 1.3254 1.14959 1.14959C1.3254 0.973772 1.56386 0.875 1.8125 0.875H11.1875C11.4361 0.875 11.6746 0.973772 11.8504 1.14959C12.0262 1.3254 12.125 1.56386 12.125 1.8125V3.11625C12.1249 3.44774 11.9932 3.76563 11.7587 4L8.375 7.38375V12.0237C8.37502 12.141 8.34507 12.2562 8.28801 12.3586C8.23095 12.461 8.14866 12.547 8.04896 12.6087C7.94927 12.6703 7.83548 12.7054 7.71839 12.7107C7.60131 12.7159 7.48482 12.6912 7.38 12.6388L5.05688 11.4775C4.92711 11.4126 4.81797 11.3129 4.74169 11.1895C4.66541 11.0661 4.62501 10.9238 4.625 10.7788V7.38375L1.24125 4C1.00681 3.76563 0.875071 3.44774 0.875 3.11625V1.8125ZM2.125 2.125V3.11625L5.6 6.59125C5.68715 6.6783 5.7563 6.78166 5.80349 6.89545C5.85067 7.00923 5.87497 7.1312 5.875 7.25437V10.4888L7.125 11.1138V7.25437C7.125 7.00562 7.22375 6.76688 7.4 6.59188L10.875 3.11562V2.125H2.125Z"
        fill="black" />
</svg>
    