<svg width="17" height="17" viewBox="0 0 17 17" fill="none" xmlns="http://www.w3.org/2000/svg">
    <path
        d="M9.51563 12.3027C9.51563 12.4333 9.46377 12.5585 9.37147 12.6508C9.27917 12.7431 9.15398 12.7949 9.02344 12.7949C8.71886 12.7949 8.42675 12.6739 8.21137 12.4586C7.996 12.2432 7.875 11.9511 7.875 11.6465V8.36523C7.875 8.32172 7.85772 8.27999 7.82695 8.24922C7.79618 8.21846 7.75445 8.20117 7.71094 8.20117C7.58041 8.20117 7.45522 8.14932 7.36291 8.05701C7.27061 7.96471 7.21875 7.83952 7.21875 7.70898C7.21875 7.57845 7.27061 7.45326 7.36291 7.36096C7.45522 7.26865 7.58041 7.2168 7.71094 7.2168C8.01553 7.2168 8.30764 7.33779 8.52301 7.55317C8.73838 7.76854 8.85938 8.06065 8.85938 8.36523V11.6465C8.85938 11.69 8.87666 11.7317 8.90743 11.7625C8.9382 11.7933 8.97993 11.8105 9.02344 11.8105C9.15398 11.8105 9.27917 11.8624 9.37147 11.9547C9.46377 12.047 9.51563 12.1722 9.51563 12.3027ZM8.03907 5.57617C8.20131 5.57617 8.35991 5.52806 8.49481 5.43792C8.62971 5.34779 8.73485 5.21967 8.79694 5.06978C8.85902 4.91989 8.87527 4.75495 8.84362 4.59582C8.81196 4.4367 8.73384 4.29053 8.61912 4.17581C8.50439 4.06109 8.35823 3.98296 8.1991 3.95131C8.03998 3.91966 7.87504 3.9359 7.72515 3.99799C7.57525 4.06008 7.44714 4.16522 7.357 4.30012C7.26686 4.43502 7.21875 4.59362 7.21875 4.75586C7.21875 4.97342 7.30518 5.18207 7.45902 5.33591C7.61286 5.48975 7.82151 5.57617 8.03907 5.57617ZM16.7344 8.36523C16.7344 10.0201 16.2437 11.6378 15.3243 13.0138C14.4049 14.3898 13.0981 15.4622 11.5692 16.0955C10.0403 16.7288 8.35791 16.8945 6.73483 16.5716C5.11176 16.2488 3.62087 15.4519 2.4507 14.2817C1.28052 13.1116 0.483627 11.6207 0.160777 9.99759C-0.162073 8.37452 0.00362523 6.69215 0.636918 5.16325C1.27021 3.63435 2.34265 2.32757 3.71863 1.40817C5.09461 0.488774 6.71232 -0.00195312 8.36719 -0.00195312C10.5855 0.000652064 12.7122 0.883029 14.2808 2.45162C15.8494 4.0202 16.7318 6.14692 16.7344 8.36523ZM15.75 8.36523C15.75 6.90505 15.317 5.47766 14.5058 4.26356C13.6945 3.04947 12.5415 2.10319 11.1925 1.5444C9.84344 0.985617 8.359 0.839413 6.92688 1.12428C5.49475 1.40915 4.17926 2.11229 3.14675 3.1448C2.11425 4.1773 1.4111 5.49279 1.12624 6.92492C0.84137 8.35704 0.987574 9.84148 1.54636 11.1905C2.10515 12.5395 3.05142 13.6926 4.26552 14.5038C5.47962 15.3151 6.90701 15.748 8.36719 15.748C10.3246 15.7459 12.2012 14.9673 13.5852 13.5833C14.9693 12.1992 15.7478 10.3226 15.75 8.36523Z"
        fill="#565656" />
</svg>
    