<svg width="16" height="20" viewBox="0 0 16 20" fill="none" xmlns="http://www.w3.org/2000/svg">
    <path fill-rule="evenodd" clip-rule="evenodd"
        d="M8.58165 1C8.58165 0.734784 8.47629 0.48043 8.28875 0.292893C8.10122 0.105357 7.84686 0 7.58165 0C7.31643 0 7.06208 0.105357 6.87454 0.292893C6.687 0.48043 6.58165 0.734784 6.58165 1V1.75H6.02465C4.95268 1.74993 3.92097 2.15839 3.13957 2.89224C2.35817 3.62608 1.8858 4.63014 1.81865 5.7L1.59765 9.234C1.51337 10.5814 1.06095 11.8799 0.289646 12.988C0.130279 13.2171 0.0329033 13.4835 0.00698854 13.7613C-0.0189262 14.0392 0.0275022 14.319 0.141758 14.5736C0.256015 14.8281 0.43421 15.0488 0.659014 15.2142C0.883818 15.3795 1.14758 15.4838 1.42465 15.517L4.83165 15.925V17C4.83165 17.7293 5.12138 18.4288 5.6371 18.9445C6.15283 19.4603 6.8523 19.75 7.58165 19.75C8.31099 19.75 9.01046 19.4603 9.52619 18.9445C10.0419 18.4288 10.3316 17.7293 10.3316 17V15.925L13.7386 15.516C14.0156 15.4827 14.2791 15.3784 14.5038 15.2131C14.7285 15.0478 14.9066 14.8273 15.0208 14.5729C15.135 14.3184 15.1815 14.0388 15.1557 13.7611C15.1299 13.4834 15.0328 13.2171 14.8736 12.988C14.1023 11.88 13.6499 10.5815 13.5656 9.234L13.3446 5.701C13.2777 4.63096 12.8055 3.62665 12.024 2.8926C11.2426 2.15855 10.2108 1.74995 9.13865 1.75H8.58165V1ZM6.02465 3.25C5.33422 3.24992 4.66972 3.51297 4.16642 3.98561C3.66313 4.45825 3.35889 5.10493 3.31565 5.794L3.09565 9.328C2.99399 10.949 2.44956 12.511 1.52165 13.844C1.51011 13.8606 1.50306 13.8798 1.50118 13.8999C1.4993 13.92 1.50265 13.9403 1.5109 13.9587C1.51915 13.9771 1.53203 13.9931 1.54828 14.005C1.56454 14.017 1.58361 14.0246 1.60365 14.027L5.34065 14.476C6.82965 14.654 8.33365 14.654 9.82265 14.476L13.5596 14.027C13.5797 14.0246 13.5988 14.017 13.615 14.005C13.6313 13.9931 13.6441 13.9771 13.6524 13.9587C13.6606 13.9403 13.664 13.92 13.6621 13.8999C13.6602 13.8798 13.6532 13.8606 13.6416 13.844C12.7141 12.5109 12.17 10.9489 12.0686 9.328L11.8476 5.794C11.8044 5.10493 11.5002 4.45825 10.9969 3.98561C10.4936 3.51297 9.82907 3.24992 9.13865 3.25H6.02465ZM7.58165 18.25C6.89165 18.25 6.33165 17.69 6.33165 17V16.25H8.83165V17C8.83165 17.69 8.27165 18.25 7.58165 18.25Z"
        fill="black" />
</svg>
    