<svg width="11" height="11" viewBox="0 0 11 11" fill="none" xmlns="http://www.w3.org/2000/svg">
    <path
        d="M0.34375 0.34375V4.09375H1.28125V5.03125H2.21875V4.09375H4.09375V0.34375H0.34375ZM4.09375 4.09375V5.03125H5.03125V5.96875H3.15625V6.90625H0.34375V10.6562H4.09375V6.90625H6.90625V5.96875H5.96875V5.03125H7.84375V4.09375H8.78125V5.03125H9.71875V4.09375H10.6562V0.34375H6.90625V4.09375H4.09375ZM9.71875 5.03125V5.96875H10.6562V5.03125H9.71875ZM9.71875 5.96875H8.78125V6.90625H9.71875V5.96875ZM9.71875 6.90625V7.84375H10.6562V6.90625H9.71875ZM9.71875 7.84375H8.78125V6.90625H7.84375V7.84375H5.5V10.6562H6.4375V8.78125H8.3125V9.71875H9.25V8.78125H9.71875V7.84375ZM8.3125 9.71875H7.375V10.6562H8.3125V9.71875ZM8.78125 5.96875V5.03125H7.84375V5.96875H8.78125ZM3.15625 5.96875V5.03125H2.21875V5.96875H3.15625ZM1.28125 5.03125H0.34375V5.96875H1.28125V5.03125ZM5.03125 0.34375V2.21875H4.5625V3.15625H5.03125V3.625H5.96875V2.21875H6.4375V1.28125H5.96875V0.34375H5.03125ZM1.28125 1.28125H3.15625V3.15625H1.28125V1.28125ZM7.84375 1.28125H9.71875V3.15625H7.84375V1.28125ZM1.75 1.75V2.6875H2.6875V1.75H1.75ZM8.3125 1.75V2.6875H9.25V1.75H8.3125ZM1.28125 7.84375H3.15625V9.71875H1.28125V7.84375ZM1.75 8.3125V9.25H2.6875V8.3125H1.75ZM9.71875 9.71875V10.6562H10.6562V9.71875H9.71875Z"
        fill="#06345F" />
</svg>
    