<svg width="18" height="20" viewBox="0 0 18 20" fill="none" xmlns="http://www.w3.org/2000/svg">
    <path fill-rule="evenodd" clip-rule="evenodd"
        d="M8.19903 0.586862C8.44407 0.450795 8.71974 0.379395 9.00002 0.379395C9.28031 0.379395 9.55598 0.450795 9.80102 0.586862L17.001 4.58686C17.525 4.87786 17.85 5.42986 17.85 6.02986V13.9699C17.85 14.5699 17.525 15.1219 17.001 15.4129L9.80102 19.4129C9.55598 19.5489 9.28031 19.6203 9.00002 19.6203C8.71974 19.6203 8.44407 19.5489 8.19903 19.4129L0.999024 15.4129C0.741648 15.2699 0.527195 15.0608 0.377909 14.807C0.228623 14.5533 0.149941 14.2643 0.150024 13.9699V6.02986C0.150024 5.42986 0.475024 4.87786 0.999024 4.58686L8.19903 0.586862ZM9.07302 1.89886C9.0507 1.88643 9.02558 1.8799 9.00002 1.8799C8.97447 1.8799 8.94935 1.88643 8.92702 1.89886L1.72702 5.89886C1.70384 5.91178 1.68449 5.93062 1.67096 5.95346C1.65743 5.9763 1.65021 6.00232 1.65002 6.02886V13.9709C1.65002 14.0249 1.68002 14.0749 1.72702 14.1009L8.92702 18.1009C8.94935 18.1133 8.97447 18.1198 9.00002 18.1198C9.02558 18.1198 9.0507 18.1133 9.07302 18.1009L16.273 14.1009C16.2962 14.0879 16.3156 14.0691 16.3291 14.0463C16.3426 14.0234 16.3498 13.9974 16.35 13.9709V6.02986C16.35 6.00315 16.3429 5.97692 16.3293 5.95389C16.3158 5.93086 16.2964 5.91186 16.273 5.89886L9.07302 1.89886Z"
        fill="white" />
    <path fill-rule="evenodd" clip-rule="evenodd"
        d="M4.25 10C4.25 8.74022 4.75045 7.53204 5.64124 6.64124C6.53204 5.75045 7.74022 5.25 9 5.25C10.2598 5.25 11.468 5.75045 12.3588 6.64124C13.2496 7.53204 13.75 8.74022 13.75 10C13.75 11.2598 13.2496 12.468 12.3588 13.3588C11.468 14.2496 10.2598 14.75 9 14.75C7.74022 14.75 6.53204 14.2496 5.64124 13.3588C4.75045 12.468 4.25 11.2598 4.25 10ZM9 6.75C8.13805 6.75 7.3114 7.09241 6.7019 7.7019C6.09241 8.3114 5.75 9.13805 5.75 10C5.75 10.862 6.09241 11.6886 6.7019 12.2981C7.3114 12.9076 8.13805 13.25 9 13.25C9.86195 13.25 10.6886 12.9076 11.2981 12.2981C11.9076 11.6886 12.25 10.862 12.25 10C12.25 9.13805 11.9076 8.3114 11.2981 7.7019C10.6886 7.09241 9.86195 6.75 9 6.75Z"
        fill="white" />
</svg>
    