<svg width="17" height="17" viewBox="0 0 17 17" fill="none" xmlns="http://www.w3.org/2000/svg">
    <path
        d="M16.3749 16.3752L12.5748 12.5751M12.5748 12.5751C13.2248 11.925 13.7405 11.1533 14.0923 10.304C14.4441 9.45473 14.6251 8.54446 14.6251 7.62518C14.6251 6.7059 14.4441 5.79563 14.0923 4.94633C13.7405 4.09703 13.2248 3.32533 12.5748 2.67531C11.9248 2.02528 11.1531 1.50965 10.3038 1.15786C9.45449 0.806065 8.54421 0.625 7.62494 0.625C6.70566 0.625 5.79538 0.806065 4.94608 1.15786C4.09678 1.50965 3.32509 2.02528 2.67506 2.67531C1.36227 3.98809 0.624756 5.76862 0.624756 7.62518C0.624756 9.48174 1.36227 11.2623 2.67506 12.5751C3.98785 13.8878 5.76837 14.6254 7.62494 14.6254C9.4815 14.6254 11.262 13.8878 12.5748 12.5751Z"
        stroke="black" stroke-linecap="round" stroke-linejoin="round" />
</svg>