<svg width="18" height="19" viewBox="0 0 18 19" fill="none" xmlns="http://www.w3.org/2000/svg">
    <path
        d="M8.85682 11.8334C10.2375 11.8334 11.3568 10.7141 11.3568 9.33337C11.3568 7.95266 10.2375 6.83337 8.85682 6.83337C7.47611 6.83337 6.35682 7.95266 6.35682 9.33337C6.35682 10.7141 7.47611 11.8334 8.85682 11.8334Z"
        stroke="#565656" stroke-width="1.5" />
    <path
        d="M1.90765 8.2C2.30182 8.44667 2.55515 8.86833 2.55515 9.33333C2.55515 9.79833 2.30182 10.22 1.90765 10.4667C1.64015 10.6358 1.46682 10.77 1.34432 10.93C1.21106 11.1037 1.11333 11.3019 1.05671 11.5134C1.00009 11.7249 0.985683 11.9455 1.01432 12.1625C1.05765 12.4908 1.25182 12.8275 1.63932 13.5C2.02849 14.1725 2.22265 14.5083 2.48515 14.7108C2.65885 14.8441 2.8571 14.9418 3.06858 14.9984C3.28005 15.0551 3.50061 15.0695 3.71765 15.0408C3.91765 15.0142 4.12015 14.9325 4.40015 14.7842C4.60054 14.6745 4.82551 14.6176 5.05393 14.6187C5.28236 14.6199 5.50673 14.6791 5.70599 14.7908C6.10849 15.0242 6.34765 15.4533 6.36432 15.9183C6.37599 16.235 6.40599 16.4517 6.48349 16.6375C6.56725 16.8398 6.69007 17.0237 6.84492 17.1786C6.99978 17.3334 7.18364 17.4562 7.38599 17.54C7.69182 17.6667 8.08015 17.6667 8.85682 17.6667C9.63349 17.6667 10.0218 17.6667 10.3277 17.54C10.53 17.4562 10.7139 17.3334 10.8687 17.1786C11.0236 17.0237 11.1464 16.8398 11.2302 16.6375C11.3068 16.4517 11.3377 16.235 11.3493 15.9183C11.366 15.4533 11.6052 15.0233 12.0077 14.7908C12.2069 14.6791 12.4313 14.6199 12.6597 14.6187C12.8881 14.6176 13.1131 14.6745 13.3135 14.7842C13.5935 14.9325 13.7968 15.0142 13.9968 15.0408C14.4349 15.0984 14.8779 14.9797 15.2285 14.7108C15.491 14.5092 15.6852 14.1725 16.0735 13.5C16.2468 13.2 16.381 12.9675 16.481 12.7725M15.806 10.4675C15.6109 10.3489 15.4491 10.1827 15.3359 9.98447C15.2226 9.78623 15.1616 9.56246 15.1585 9.33417C15.1585 8.86833 15.4118 8.44667 15.806 8.19917C16.0735 8.03083 16.246 7.89667 16.3693 7.73667C16.5026 7.56297 16.6003 7.36472 16.6569 7.15325C16.7136 6.94177 16.728 6.72121 16.6993 6.50417C16.656 6.17583 16.4618 5.83917 16.0743 5.16667C15.6852 4.49417 15.491 4.15833 15.2285 3.95583C15.0548 3.82258 14.8565 3.72484 14.6451 3.66822C14.4336 3.6116 14.213 3.5972 13.996 3.62583C13.796 3.6525 13.5935 3.73417 13.3127 3.8825C13.1124 3.99201 12.8876 4.04885 12.6593 4.04769C12.431 4.04652 12.2068 3.98739 12.0077 3.87583C11.8114 3.75909 11.648 3.59437 11.5328 3.39714C11.4177 3.19992 11.3545 2.97666 11.3493 2.74833C11.3377 2.43167 11.3077 2.215 11.2302 2.02917C11.1464 1.82682 11.0236 1.64296 10.8687 1.4881C10.7139 1.33325 10.53 1.21043 10.3277 1.12667C10.0218 1 9.63349 1 8.85682 1C8.08015 1 7.69182 1 7.38599 1.12667C7.18364 1.21043 6.99978 1.33325 6.84492 1.4881C6.69007 1.64296 6.56725 1.82682 6.48349 2.02917C6.40682 2.215 6.37599 2.43167 6.36432 2.74833C6.35913 2.97666 6.29599 3.19992 6.18083 3.39714C6.06567 3.59437 5.90228 3.75909 5.70599 3.87583C5.50673 3.98754 5.28236 4.04675 5.05393 4.04792C4.82551 4.04908 4.60054 3.99216 4.40015 3.8825C4.12015 3.73417 3.91682 3.6525 3.71682 3.62583C3.27875 3.56823 2.83574 3.68692 2.48515 3.95583C2.22349 4.15833 2.02849 4.49417 1.64015 5.16667C1.46682 5.46667 1.33265 5.69917 1.23265 5.89417"
        stroke="#565656" stroke-width="1.5" stroke-linecap="round" />
</svg>