<svg width="19" height="16" viewBox="0 0 19 16" fill="none" xmlns="http://www.w3.org/2000/svg">
    <path
        d="M2.63455 14.7324C4.20718 12.3365 6.15068 11.5842 8.54172 11.3935V12.7707C8.54172 13.2824 8.74105 13.7635 9.1033 14.1257C9.8278 14.8502 11.0938 14.8455 11.8087 14.1305L17.8395 8.18216C17.93 8.09299 18.0019 7.9867 18.051 7.86948C18.1001 7.75225 18.1254 7.62644 18.1254 7.49935C18.1254 7.37227 18.1001 7.24645 18.051 7.12923C18.0019 7.012 17.93 6.90571 17.8395 6.81654L11.8135 0.871997C11.0909 0.148456 9.82684 0.147497 9.10234 0.872956C8.74105 1.23521 8.54172 1.71629 8.54172 2.22804V3.86104C4.11518 4.75516 0.875051 8.64983 0.875051 13.2489V14.2072C0.874506 14.4138 0.940779 14.6149 1.06397 14.7807C1.18717 14.9465 1.36068 15.068 1.55861 15.1271C1.75653 15.1862 1.96826 15.1797 2.16217 15.1085C2.35608 15.0374 2.52179 14.9054 2.63455 14.7324ZM9.47801 9.42704C7.36297 9.48071 5.03326 9.80462 3.00159 11.4597C3.36829 9.92625 4.19968 8.54353 5.38208 7.50059C6.56449 6.45764 8.04019 5.80538 9.60739 5.633C10.0904 5.57933 10.4584 5.58316 10.4584 5.58316V2.23187L15.8021 7.49887L10.4584 12.7697V9.4165L9.47801 9.42704Z"
        fill="white" />
</svg>
    