<svg width="22" height="17" viewBox="0 0 22 17" fill="none" xmlns="http://www.w3.org/2000/svg">
    <path
        d="M21 7.99988C21.0017 9.31167 20.7444 10.6109 20.243 11.8231C19.7416 13.0353 19.0059 14.1366 18.078 15.0639M1.00001 7.99988C0.998328 6.68474 1.25688 5.38228 1.76078 4.16751C2.26467 2.95274 3.00394 1.84968 3.93601 0.921875M18.141 0.999875C18.9933 1.86842 19.6802 2.88503 20.168 3.99988M4.00001 15.1419C3.08267 14.2432 2.34665 13.1765 1.83201 11.9999M15.285 4.04387C16.345 5.05887 17 6.44888 17 7.98188C17 9.53388 16.33 10.9389 15.247 11.9559M6.80001 11.9999C5.69001 10.9789 5.00001 9.55588 5.00001 7.98188C5.00001 6.42688 5.67301 5.01788 6.76201 3.99988"
        stroke="currentColor" stroke-width="1.8" stroke-linecap="round" stroke-linejoin="round" />
    <path
        d="M12.656 6.4509C13.552 7.1099 14 7.4379 14 7.9999C14 8.5619 13.552 8.8909 12.656 9.5489C12.4222 9.72184 12.1828 9.88693 11.938 10.0439C11.7243 10.1773 11.5065 10.304 11.285 10.4239C10.391 10.9139 9.945 11.1589 9.544 10.8879C9.143 10.6169 9.107 10.0499 9.034 8.9169C9.014 8.5959 9 8.2819 9 7.9999C9 7.7179 9.013 7.4039 9.034 7.0829C9.106 5.9499 9.143 5.3829 9.544 5.1129C9.944 4.8409 10.391 5.0859 11.284 5.5749C11.517 5.7019 11.741 5.8309 11.938 5.9559C12.164 6.0989 12.409 6.2699 12.656 6.4509Z"
        stroke="currentColor" stroke-width="1.8" />
</svg>