<svg width="14" height="16" viewBox="0 0 14 16" fill="none" xmlns="http://www.w3.org/2000/svg">
    <path
        d="M1.15799 9.9299C0.808267 9.34687 0.623535 8.67977 0.623535 7.9999C0.623535 7.32003 0.808267 6.65293 1.15799 6.0699C1.26553 5.89042 1.40943 5.73542 1.58045 5.61487C1.75146 5.49431 1.9458 5.41087 2.15099 5.3699L3.84399 5.0309C3.94496 5.01091 4.03602 4.95691 4.10199 4.8779L6.16999 2.3949C7.35199 0.9749 7.94399 0.2659 8.47099 0.4569C8.99999 0.6479 8.99999 1.5719 8.99999 3.4199V12.5819C8.99999 14.4289 8.99999 15.3519 8.47199 15.5439C7.94499 15.7339 7.35299 15.0249 6.17099 13.6059L4.09999 11.1219C4.03427 11.0431 3.94359 10.9891 3.84299 10.9689L2.14999 10.6299C1.9448 10.5889 1.75046 10.5055 1.57945 10.3849C1.40843 10.2644 1.26553 10.1094 1.15799 9.9299Z"
        fill="white" />
    <path
        d="M11.536 4.46387C12.469 5.39686 12.9955 6.66084 13.0005 7.98031C13.0056 9.29977 12.4889 10.5678 11.563 11.5079"
        stroke="white" stroke-width="2" stroke-linecap="round" />
</svg>
    