<svg width="12" height="10" viewBox="0 0 12 10" fill="none" xmlns="http://www.w3.org/2000/svg">
    <path
        d="M5.99999 7.91675C6.1547 7.91675 6.30307 7.97821 6.41247 8.08761C6.52187 8.197 6.58332 8.34538 6.58332 8.50009C6.58332 8.6548 6.52187 8.80317 6.41247 8.91257C6.30307 9.02196 6.1547 9.08342 5.99999 9.08342C5.84528 9.08342 5.69691 9.02196 5.58751 8.91257C5.47812 8.80317 5.41666 8.6548 5.41666 8.50009C5.41666 8.34538 5.47812 8.197 5.58751 8.08761C5.69691 7.97821 5.84528 7.91675 5.99999 7.91675ZM5.99999 5.58342C6.80499 5.58342 7.53533 5.91009 8.06266 6.43742C8.17212 6.54688 8.23361 6.69533 8.23361 6.85013C8.23361 7.00492 8.17212 7.15338 8.06266 7.26284C7.9532 7.37229 7.80475 7.43379 7.64995 7.43379C7.49515 7.43379 7.3467 7.37229 7.23724 7.26284C7.07501 7.10001 6.88217 6.97088 6.66983 6.88288C6.45749 6.79488 6.22984 6.74975 5.99999 6.75009C5.51641 6.75009 5.08007 6.9455 4.76274 7.26284C4.65328 7.37229 4.50483 7.43379 4.35003 7.43379C4.19524 7.43379 4.04678 7.37229 3.93733 7.26284C3.82787 7.15338 3.76638 7.00492 3.76638 6.85013C3.76638 6.69533 3.82787 6.54688 3.93733 6.43742C4.20797 6.16626 4.52951 5.95123 4.88348 5.80468C5.23745 5.65813 5.61688 5.58293 5.99999 5.58342ZM5.99999 3.25009C6.68955 3.24928 7.37248 3.38471 8.00955 3.64859C8.64662 3.91247 9.22529 4.2996 9.71233 4.78775C9.81858 4.89777 9.87738 5.04512 9.87605 5.19807C9.87472 5.35102 9.81337 5.49733 9.70522 5.60548C9.59706 5.71364 9.45076 5.77498 9.29781 5.77631C9.14486 5.77764 8.99751 5.71885 8.88749 5.61259C8.50877 5.23278 8.05869 4.93159 7.56314 4.72637C7.06759 4.52114 6.53636 4.41592 5.99999 4.41675C5.46363 4.41592 4.93239 4.52114 4.43684 4.72637C3.9413 4.93159 3.49121 5.23278 3.11249 5.61259C3.00247 5.71885 2.85512 5.77764 2.70217 5.77631C2.54923 5.77498 2.40292 5.71364 2.29476 5.60548C2.18661 5.49733 2.12526 5.35102 2.12393 5.19807C2.1226 5.04512 2.1814 4.89777 2.28766 4.78775C2.77469 4.2996 3.35336 3.91247 3.99043 3.64859C4.62751 3.38471 5.31043 3.24928 5.99999 3.25009ZM5.99999 0.916753C8.09416 0.916753 9.98999 1.76609 11.362 3.13809C11.4682 3.2481 11.527 3.39546 11.5257 3.5484C11.5244 3.70135 11.463 3.84766 11.3549 3.95581C11.2467 4.06397 11.1004 4.12532 10.9475 4.12665C10.7945 4.12798 10.6472 4.06918 10.5372 3.96292C9.94207 3.36609 9.23486 2.89279 8.4562 2.57023C7.67755 2.24768 6.84281 2.08224 5.99999 2.08342C5.15716 2.08217 4.32241 2.24758 3.54374 2.57014C2.76508 2.8927 2.05788 3.36604 1.46283 3.96292C1.35281 4.06918 1.20546 4.12798 1.05251 4.12665C0.89956 4.12532 0.753252 4.06397 0.645098 3.95581C0.536943 3.84766 0.475594 3.70135 0.474265 3.5484C0.472936 3.39546 0.531733 3.2481 0.637992 3.13809C1.3414 2.43291 2.17719 1.87366 3.09737 1.49245C4.01755 1.11125 5.00398 0.915603 5.99999 0.916753Z"
        fill="#06345F" />
</svg>
    